<?xml version="1.0" encoding="UTF-8"?>
<svg width="30px" height="19px" viewBox="0 0 30 19" version="1.1" xmlns="http://www.w3.org/2000/svg" xmlns:xlink="http://www.w3.org/1999/xlink">
    <!-- Generator: Sketch 49.2 (51160) - http://www.bohemiancoding.com/sketch -->
    <title>01</title>
    <desc>Created with Sketch.</desc>
    <defs></defs>
    <g id="Page-1" stroke="none" stroke-width="1" fill="none" fill-rule="evenodd">
        <g id="移动端首页" transform="translate(-308.000000, -38.000000)" fill="#FFFFFF">
            <g id="Group" transform="translate(307.000000, 38.000000)">
                <g id="Group-2">
                    <path d="M6.95557022,1.55624247 L6.81680985,1.40094217 C6.57916656,1.13497233 6.57916656,0.732950566 6.81680985,0.466980724 L6.95557022,0.311680429 C7.13276008,0.113369921 7.38608722,4.8852117e-17 7.65202576,0 L29.1477775,4.4408921e-16 C29.413716,3.95237093e-16 29.6670431,0.113369921 29.844233,0.311680429 L29.9829934,0.466980724 C30.2206366,0.732950566 30.2206366,1.13497233 29.9829934,1.40094217 L29.844233,1.55624247 C29.6670431,1.75455297 29.413716,1.8679229 29.1477775,1.8679229 L7.65202576,1.8679229 C7.38608722,1.8679229 7.13276008,1.75455297 6.95557022,1.55624247 Z" id="Rectangle"></path>
                    <path d="M1.34799849,10.0562425 L1.20923812,9.90094217 C0.971594831,9.63497233 0.971594831,9.23295057 1.20923812,8.96698072 L1.34799849,8.81168043 C1.52518835,8.61336992 1.77851549,8.5 2.04445403,8.5 L23.5402057,8.5 C23.8061443,8.5 24.0594714,8.61336992 24.2366613,8.81168043 L24.3754216,8.96698072 C24.6130649,9.23295057 24.6130649,9.63497233 24.3754216,9.90094217 L24.2366613,10.0562425 C24.0594714,10.254553 23.8061443,10.3679229 23.5402057,10.3679229 L2.04445403,10.3679229 C1.77851549,10.3679229 1.52518835,10.254553 1.34799849,10.0562425 Z" id="Rectangle-Copy"></path>
                    <path d="M6.95557022,18.5562425 L6.81680985,18.4009422 C6.57916656,18.1349723 6.57916656,17.7329506 6.81680985,17.4669807 L6.95557022,17.3116804 C7.13276008,17.1133699 7.38608722,17 7.65202576,17 L29.1477775,17 C29.413716,17 29.6670431,17.1133699 29.844233,17.3116804 L29.9829934,17.4669807 C30.2206366,17.7329506 30.2206366,18.1349723 29.9829934,18.4009422 L29.844233,18.5562425 C29.6670431,18.754553 29.413716,18.8679229 29.1477775,18.8679229 L7.65202576,18.8679229 C7.38608722,18.8679229 7.13276008,18.754553 6.95557022,18.5562425 Z" id="Rectangle-Copy-2"></path>
                </g>
            </g>
        </g>
    </g>
</svg>