<svg id="图层_1" data-name="图层 1" xmlns="http://www.w3.org/2000/svg" viewBox="0 0 305.44 159.28"><defs><style>.cls-1{fill:#fbbb01;}.cls-2{fill:#fff;}</style></defs><title>1</title><path class="cls-1" d="M296.4,65.17C295,57,287.23,50.9,278.14,50.9h-4.32A20.89,20.89,0,0,0,255.73,41a22,22,0,0,0-9.09,2C231.56,17.39,202,0,168.06,0,129.69,0,97,22.19,84.37,53.33H65.09c-8,0-14.51,6-14.51,13.3l-3,45.1c0,7.34,6.5,13.3,14.52,13.3h5.6c2.66,19.2,20.54,34.06,42.22,34.06,18.33,0,33.95-10.61,39.95-25.5h43.88c6,14.89,21.62,25.5,39.95,25.5,19.64,0,36.17-12.19,41.08-28.77h16.12c8,0,14.52-5.95,14.52-13.3Z"/><path class="cls-1" d="M71,152.07H29.78a3.61,3.61,0,0,0,0,7.21H71a3.61,3.61,0,0,0,0-7.21Z"/><path class="cls-1" d="M44.16,132h0a2.91,2.91,0,0,0-2.83-3.63H2.92a2.92,2.92,0,1,0,0,5.84H41.33A2.91,2.91,0,0,0,44.16,132Z"/><path class="cls-1" d="M19.57,115.67H35.1a2.14,2.14,0,0,0,0-4.28H19.57a2.14,2.14,0,1,0,0,4.28Z"/><path class="cls-2" d="M80,113.62h0a3.86,3.86,0,0,0,3.86-3.86V61.13a3.86,3.86,0,0,0-7.72,0v48.63A3.86,3.86,0,0,0,80,113.62Z"/><path class="cls-2" d="M91,113.62a3.86,3.86,0,0,0,3.86-3.86V61.13A3.86,3.86,0,0,0,91,57.27h0a3.86,3.86,0,0,0-3.86,3.86v48.63A3.86,3.86,0,0,0,91,113.62Z"/><path class="cls-2" d="M91,120.1A3.86,3.86,0,0,0,94.83,124h2.51c12.27,0,22.25-9.29,22.25-20.71V70a7.34,7.34,0,0,1,4.48,6.53v29.3a3.86,3.86,0,1,0,7.71,0V76.49c0-7.06-5.19-13-12.19-14.64V57.27H132.8a3.11,3.11,0,0,0,2.75-1.65l.21-.38a39.77,39.77,0,0,1,2.85-4.31h0a42.35,42.35,0,0,1,26.26-14.83A3.91,3.91,0,0,0,168.1,32a3.86,3.86,0,0,0-4.46-3.51,50.12,50.12,0,0,0-31.09,17.66c-.07.09-1.24,1.62-2.38,3.4H102.84a3.86,3.86,0,1,0,0,7.71h9V61.8c-7.09,1.6-12.39,7.57-12.39,14.69v29.3a3.86,3.86,0,0,0,7.72,0V76.49a7.36,7.36,0,0,1,4.67-6.61v33.37c0,7.16-6.53,13-14.54,13H94.83A3.86,3.86,0,0,0,91,120.1Z"/><path class="cls-2" d="M257,60.82a13,13,0,0,0,11.76-7.15,3.5,3.5,0,0,0-3.21-5,3.8,3.8,0,0,0-3.12,2,6.26,6.26,0,0,1-10.86,0,3.74,3.74,0,0,0-3.08-1.94h-.09a3.48,3.48,0,0,0-3.18,4.91A13,13,0,0,0,257,60.82Z"/><path class="cls-2" d="M263,122.58a3.89,3.89,0,0,0-4.32,2.69c-3.29,10-13.65,17.21-25.47,17.21-14.64,0-26.56-10.77-26.56-24V72.4c0-17.77-15.62-32.23-34.82-32.23S137,54.63,137,72.4v46.06c0,13.25-11.91,24-26.55,24-13.37,0-24.47-9-26.3-20.62a3.94,3.94,0,0,0-3.86-3.4,3.53,3.53,0,0,0-3.82,4.18c2.21,15.53,16.6,27.55,34,27.55,18.89,0,34.27-14.23,34.27-31.73V72.4c0-13.52,12.16-24.52,27.1-24.52s27.11,11,27.11,24.52v46.06c0,17.5,15.37,31.73,34.27,31.73,15.24,0,28.64-9.52,32.87-22.74A3.82,3.82,0,0,0,263,122.58Z"/><path class="cls-2" d="M69.11,57.27h0a3.86,3.86,0,0,0-3.86,3.86v42.28A7.11,7.11,0,0,1,60,110a3.85,3.85,0,1,0,2.35,7.34A14.81,14.81,0,0,0,73,103.41V61.13A3.86,3.86,0,0,0,69.11,57.27Z"/><path class="cls-2" d="M159.59,82.46a12.85,12.85,0,0,0,17.24,0l16-14.69a2.23,2.23,0,0,0,.14-3.15l-2.2-2.4a2.23,2.23,0,0,0-3.15-.14l-16,14.69a5.14,5.14,0,0,1-6.81,0l-9-8.24a2.23,2.23,0,0,0-3.15.14l-2.2,2.4a2.23,2.23,0,0,0,.13,3.15Z"/><path class="cls-2" d="M183.42,90.35a12.84,12.84,0,0,0-17.24,0l-16,14.69a2.23,2.23,0,0,0-.14,3.15l2.2,2.4a2.23,2.23,0,0,0,3.15.14l16-14.69a5.15,5.15,0,0,1,6.82,0l9.58,8.78a2.24,2.24,0,0,0,3.15-.13l2.2-2.41a2.24,2.24,0,0,0-.13-3.15Z"/><path class="cls-2" d="M179,36.08c18,2.84,31.49,16.64,33.07,33.82a3.8,3.8,0,0,0,3.7,3.37h.1a3.7,3.7,0,0,0,3.76-4.06c-1.87-20.72-17.94-37.34-39.4-40.74A3.87,3.87,0,0,0,175.77,32,3.94,3.94,0,0,0,179,36.08Z"/><path class="cls-2" d="M291.05,112.53H227.48c-4.25,0-7.72-3-7.72-6.75v-25a3.86,3.86,0,1,0-7.71,0v25c0,8,6.92,14.47,15.43,14.47h63.57a3.86,3.86,0,1,0,0-7.72Z"/><path class="cls-2" d="M230.24,109.52h1.85c10.43,0,19-7.16,20-16.29h1.43v14a2.23,2.23,0,0,0,2.23,2.23h2.56a2.23,2.23,0,0,0,2.23-2.23v-14H273c3.2,0,5.81,2.08,5.81,4.64s-2.61,4.64-5.81,4.64h-2.3a3.51,3.51,0,1,0,0,7H273c7.07,0,12.82-5.22,12.82-11.65S280,86.22,273,86.22H260.54V81.69h10.14c5.74,0,10.42-4.28,10.42-9.55s-4.68-9.55-10.42-9.55H235.51a3.51,3.51,0,1,0,0,7h18v5.06H233.74a2.23,2.23,0,0,0-2.23,2.23V91a2.22,2.22,0,0,0,2.22,2.23H245c-1,5.25-6.39,9.28-12.91,9.28h-1.85a3.51,3.51,0,0,0,0,7Zm30.3-39.91h10.14c1.84,0,3.4,1.16,3.4,2.53s-1.56,2.53-3.4,2.53H260.54Zm-22,16.61V81.69h15v4.53Z"/><path class="cls-2" d="M127.93,113.26a5.22,5.22,0,1,0,5.67,5.2A5.46,5.46,0,0,0,127.93,113.26Z"/></svg>