<?xml version="1.0" encoding="UTF-8"?>
<svg width="289px" height="246px" viewBox="0 0 289 246" version="1.1" xmlns="http://www.w3.org/2000/svg" xmlns:xlink="http://www.w3.org/1999/xlink">
    <!-- Generator: Sketch 49.2 (51160) - http://www.bohemiancoding.com/sketch -->
    <title>15</title>
    <desc>Created with Sketch.</desc>
    <defs></defs>
    <g id="Page-1" stroke="none" stroke-width="1" fill="none" fill-rule="evenodd">
        <g id="首页" transform="translate(-629.000000, -3718.000000)" fill-rule="nonzero">
            <g id="Group-38" transform="translate(629.000000, 3718.000000)">
                <g id="Group-42">
                    <path d="M265.301729,221.84178 C261.822758,235.812896 249.477969,246 234.869997,246 C221.30942,246 209.759436,237.341437 205.363851,224.861666 L83.6456058,224.861666 C79.2497313,237.350953 67.6907772,246 54.1299108,246 C39.5219393,246 27.1959567,235.812896 23.7074383,221.84178 C8.519349,215.494629 -1.1597923,199.827152 0.111837372,182.435344 L3.09517584,141.976144 C4.26409133,125.823952 14.4672191,111.545455 29.0847387,104.890634 L42.2153632,41.8202105 C47.0223835,18.7620449 69.7013695,0 92.7825317,0 L196.226634,0 C219.307796,0 241.986782,18.7525291 246.784255,41.8202105 L259.914879,104.890634 C274.532399,111.545167 284.735527,125.823952 285.91399,141.976144 L288.88807,182.435344 C290.1597,199.82744 280.489818,215.494917 265.301729,221.84178 Z" id="Shape-Copy" fill="#FFFFFF"></path>
                    <g id="位置-copy" transform="translate(107.000000, 29.000000)" fill="#FBBB02">
                        <path d="M78,38.0543934 C78,38.8005579 77.9812949,39.5094143 77.9438848,40.1809624 C77.9064747,40.8525105 77.8503596,41.5613668 77.7755395,42.3075313 C77.1021582,48.5006973 75.7366906,54.4513598 73.6791366,60.1595188 C71.6215827,65.8676778 69.0215827,71.3519874 65.8791367,76.6124476 C62.7366906,81.8729079 59.1079137,86.9281729 54.9928058,91.7782427 C50.8776979,96.6283125 46.4258993,101.291841 41.6374101,105.768828 C40.9640288,106.589609 40.1035972,107 39.0561151,107 C37.933813,107 37.0359712,106.589609 36.3625899,105.768828 C31.5741007,101.291841 27.1035971,96.5910042 22.9510792,91.666318 C18.7985612,86.7416318 15.1323741,81.5930962 11.9525181,76.2207113 C8.772662,70.8483264 6.15395695,65.2707462 4.09640294,59.4879707 C2.03884892,53.7051952 0.710791385,47.6799162 0.112230323,41.4121339 C0.112230323,40.8152022 0.0935252689,40.2555788 0.0561151613,39.7332636 C0.0187050538,39.2109484 0,38.651325 0,38.0543934 C0,32.8312413 1.02877697,27.9065551 3.08633091,23.2803348 C5.14388485,18.6541144 7.9309352,14.6248257 11.4474819,11.1924687 C14.9640287,7.76011166 19.0978416,5.03661095 23.8489208,3.02196657 C28.5999999,1.00732219 33.6690646,-2.85050391e-15 39.056115,0 C44.4431654,2.85050391e-15 49.4935251,1.00732219 54.2071941,3.02196657 C58.9208631,5.03661095 63.035971,7.76011166 66.5525178,11.1924687 C70.0690647,14.6248257 72.856115,18.6541144 74.9136689,23.2803348 C76.9712227,27.9065551 77.9999997,32.8312413 77.9999998,38.0543934 L78,38.0543934 Z" id="Shape"></path>
                    </g>
                    <g id="竞价" transform="translate(127.000000, 49.000000)" fill="#000000">
                        <path d="M45.2,24.3396852 C45.8,24.5387286 46.2333333,24.862174 46.5,25.3100216 C46.7666667,25.7578692 46.925,26.2471841 46.975,26.7779664 C47.025,27.3087486 47,27.822944 46.9,28.3205524 C46.8,28.8181608 46.6833333,29.2162475 46.55,29.5148125 C46.4166667,29.8133776 46.2,30.1451165 45.9,30.5100293 C45.6,30.8749421 45.2416667,31.1818006 44.825,31.4306048 C44.4083333,31.679409 43.9416667,31.836985 43.425,31.9033328 C42.9083333,31.9696806 42.3666667,31.853572 41.8,31.5550069 C41.4666667,31.3891375 40.8166667,31.0491051 39.85,30.5349097 C38.8833333,30.0207144 37.725,29.4069974 36.375,28.6937587 C35.025,27.98052 33.575,27.2258139 32.025,26.4296405 C30.475,25.6334671 28.975,24.8455871 27.525,24.0660006 C26.075,23.2864141 24.7333333,22.5731754 23.5,21.9262845 C22.2666667,21.2793936 21.3,20.7734917 20.6,20.4085789 L18.55,24.8372936 C18.3833333,25.2685542 18.1166667,25.6002932 17.75,25.8325104 C17.3833333,26.0647277 16.9833333,26.2140102 16.55,26.280358 L15.9,27.7234223 C16.2333333,27.8561179 16.4583333,28.0800417 16.575,28.3951936 C16.6916667,28.7103456 16.6833333,29.0337911 16.55,29.36553 C16.3833333,29.664095 16.1416667,29.8797254 15.825,30.0124209 C15.5083333,30.1451165 15.2,30.1285295 14.9,29.9626601 L3.6,24.8870545 C3.26666667,24.721185 3.04166667,24.4806743 2.925,24.1655223 C2.80833333,23.8503703 2.81666667,23.5435118 2.95,23.2449468 C3.11666667,22.9132078 3.35833333,22.6892841 3.675,22.5731754 C3.99166667,22.4570668 4.3,22.4819472 4.6,22.6478167 L5.25,21.2047524 C4.98333333,20.8398395 4.825,20.4417528 4.775,20.0104922 C4.725,19.5792316 4.8,19.147971 5,18.7167104 L11.15,5.23152291 C11.3166667,4.80026231 11.5833333,4.46852338 11.95,4.23630613 C12.3166667,4.00408888 12.7166667,3.85480636 13.15,3.78845857 L13.8,2.39515507 C13.4666667,2.2292856 13.2416667,1.98877488 13.125,1.6736229 C13.0083333,1.35847091 13.0333333,1.05161241 13.2,0.753047369 C13.3333333,0.42130844 13.5583333,0.197384663 13.875,0.0812760376 C14.1916667,-0.0348325876 14.5,-0.0265391143 14.8,0.106156457 L26.15,5.23152291 C26.45,5.36421848 26.6666667,5.58814226 26.8,5.90329424 C26.9333333,6.21844623 26.9166667,6.52530474 26.75,6.82386977 C26.5833333,7.1556087 26.35,7.37953248 26.05,7.4956411 C25.75,7.61174973 25.4333333,7.60345626 25.1,7.47076069 L24.45,8.86406419 C24.7166667,9.22897701 24.875,9.62706372 24.925,10.0583243 C24.975,10.4895849 24.9,10.9208455 24.7,11.3521062 L22.7,15.7808209 C23.4333333,16.0793859 24.4666667,16.4774726 25.8,16.975081 C27.1333333,17.4726894 28.5833333,18.0200586 30.15,18.6171887 C31.7166667,19.2143188 33.325,19.8280358 34.975,20.4583398 C36.625,21.0886437 38.1583333,21.6774803 39.575,22.2248496 C40.9916667,22.7722188 42.2083333,23.2366533 43.225,23.6181531 C44.2416667,23.9996528 44.9,24.2401636 45.2,24.3396852 Z M16.5,36.7798951 C17.1333333,36.7798951 17.6666667,36.9955254 18.1,37.426786 C18.5333333,37.8580466 18.75,38.3888289 18.75,39.0191328 L18.75,40.7607622 C18.75,41.3910662 18.5333333,41.9218485 18.1,42.3531091 C17.6666667,42.7843697 17.1333333,43 16.5,43 L2.3,43 C1.66666667,43 1.125,42.7843697 0.675,42.3531091 C0.225,41.9218485 0,41.3910662 0,40.7607622 L0,39.0191328 C0,38.3888289 0.225,37.8580466 0.675,37.426786 C1.125,36.9955254 1.66666667,36.7798951 2.3,36.7798951 L16.5,36.7798951 Z" id="Shape"></path>
                    </g>
                </g>
            </g>
        </g>
    </g>
</svg>