<?xml version="1.0" encoding="UTF-8"?>
<svg width="289px" height="246px" viewBox="0 0 289 246" version="1.1" xmlns="http://www.w3.org/2000/svg" xmlns:xlink="http://www.w3.org/1999/xlink">
    <!-- Generator: Sketch 49.2 (51160) - http://www.bohemiancoding.com/sketch -->
    <title>16</title>
    <desc>Created with Sketch.</desc>
    <defs></defs>
    <g id="Page-1" stroke="none" stroke-width="1" fill="none" fill-rule="evenodd">
        <g id="首页" transform="translate(-1002.000000, -3718.000000)" fill-rule="nonzero">
            <g id="Group-43" transform="translate(1002.000000, 3718.000000)">
                <g id="Group-39">
                    <path d="M265.301729,221.84178 C261.822758,235.812896 249.477969,246 234.869997,246 C221.30942,246 209.759436,237.341437 205.363851,224.861666 L83.6456058,224.861666 C79.2497313,237.350953 67.6907772,246 54.1299108,246 C39.5219393,246 27.1959567,235.812896 23.7074383,221.84178 C8.519349,215.494629 -1.1597923,199.827152 0.111837372,182.435344 L3.09517584,141.976144 C4.26409133,125.823952 14.4672191,111.545455 29.0847387,104.890634 L42.2153632,41.8202105 C47.0223835,18.7620449 69.7013695,0 92.7825317,0 L196.226634,0 C219.307796,0 241.986782,18.7525291 246.784255,41.8202105 L259.914879,104.890634 C274.532399,111.545167 284.735527,125.823952 285.91399,141.976144 L288.88807,182.435344 C290.1597,199.82744 280.489818,215.494917 265.301729,221.84178 Z" id="Shape-Copy-2" fill="#FFFFFF"></path>
                    <g id="位置-copy-2" transform="translate(104.000000, 29.000000)" fill="#FBBB02">
                        <path d="M78,38.0543934 C78,38.8005579 77.9812949,39.5094143 77.9438848,40.1809624 C77.9064747,40.8525105 77.8503596,41.5613668 77.7755395,42.3075313 C77.1021582,48.5006973 75.7366906,54.4513598 73.6791366,60.1595188 C71.6215827,65.8676778 69.0215827,71.3519874 65.8791367,76.6124476 C62.7366906,81.8729079 59.1079137,86.9281729 54.9928058,91.7782427 C50.8776979,96.6283125 46.4258993,101.291841 41.6374101,105.768828 C40.9640288,106.589609 40.1035972,107 39.0561151,107 C37.933813,107 37.0359712,106.589609 36.3625899,105.768828 C31.5741007,101.291841 27.1035971,96.5910042 22.9510792,91.666318 C18.7985612,86.7416318 15.1323741,81.5930962 11.9525181,76.2207113 C8.772662,70.8483264 6.15395695,65.2707462 4.09640294,59.4879707 C2.03884892,53.7051952 0.710791385,47.6799162 0.112230323,41.4121339 C0.112230323,40.8152022 0.0935252689,40.2555788 0.0561151613,39.7332636 C0.0187050538,39.2109484 0,38.651325 0,38.0543934 C0,32.8312413 1.02877697,27.9065551 3.08633091,23.2803348 C5.14388485,18.6541144 7.9309352,14.6248257 11.4474819,11.1924687 C14.9640287,7.76011166 19.0978416,5.03661095 23.8489208,3.02196657 C28.5999999,1.00732219 33.6690646,-2.85050391e-15 39.056115,0 C44.4431654,2.85050391e-15 49.4935251,1.00732219 54.2071941,3.02196657 C58.9208631,5.03661095 63.035971,7.76011166 66.5525178,11.1924687 C70.0690647,14.6248257 72.856115,18.6541144 74.9136689,23.2803348 C76.9712227,27.9065551 77.9999997,32.8312413 77.9999998,38.0543934 L78,38.0543934 Z" id="Shape"></path>
                    </g>
                    <g id="上门" transform="translate(128.000000, 45.000000)" fill="#000000">
                        <path d="M8.80913239,17.0597627 C7.73221507,16.0641281 6.45286969,15.8162191 5.07635884,16.1241061 C3.14114652,16.5559476 1.94277237,18.1473634 1.93872381,20.1706207 C1.93062668,25.3247287 1.93872381,30.4788367 1.93467524,35.6329447 C1.93467524,36.9884472 2.44479397,38.0960406 3.51361416,38.9517265 C3.59053683,39.0197015 3.65531381,39.1676472 3.63911957,39.263612 C3.3638174,41.2029001 3.0804181,43.1461868 2.79701881,45.0814763 C2.20592885,49.1639777 1.6148389,53.2464791 1.02374895,57.3289805 C0.869903615,58.3885915 1.47718781,59.376229 2.44884253,59.6361336 C3.50146848,59.9200294 4.53385162,59.4482026 4.91441639,58.452568 C5.06826172,58.0567133 5.10874733,57.6208733 5.16947575,57.1970289 C5.50550634,54.9338597 5.82939125,52.6626934 6.15732471,50.3955256 C6.27878155,49.5638309 6.40428696,48.7321362 6.5257438,47.9004416 C6.59052078,47.9604195 6.61481215,48.0203975 6.63100639,48.0883726 C6.97108554,49.4718647 7.31116469,50.8513583 7.65124385,52.2348505 C8.14921689,54.2621063 8.64718993,56.2853636 9.14516298,58.3166179 C9.30710543,58.9883714 9.66742739,59.5121791 10.3192458,59.8040719 C10.5054796,59.8880411 10.7119562,59.9360235 10.9062872,60 C11.0844239,60 11.2625606,60 11.4406973,60 C11.5054742,59.9800073 11.5662027,59.9560161 11.6350282,59.9360235 C12.707897,59.6641233 13.3678124,58.7044756 13.1613358,57.6368675 C12.9912962,56.7451948 12.7524311,55.8695162 12.5378574,54.9898391 C11.2382692,49.7077781 9.93463244,44.4257171 8.64314137,39.1396575 C8.61885,39.0356957 8.6512385,38.8597602 8.72816116,38.7917852 C9.69171876,37.9201052 10.1330119,36.8405015 10.1289634,35.5569726 C10.1249148,31.7823582 10.1289634,27.9997468 10.1289634,24.2251324 C10.1289634,24.1131735 10.1289634,24.0012146 10.1289634,23.8252792 C10.2544688,23.9332395 10.3394886,24.0012146 10.4123627,24.0691896 C13.0601218,26.5162913 15.7078809,28.9673916 18.35564,31.4104947 C18.5013882,31.5424463 18.6471364,31.6743979 18.8090789,31.7863568 C19.4487516,32.2062027 20.137007,32.2781762 20.8333595,31.9502966 C21.5499549,31.6144199 21.9426653,31.0346327 21.9952966,30.2429233 C22.0438794,29.5231875 21.7118974,28.9793872 21.1936815,28.4995633 C17.0641489,24.6889621 12.9305678,20.8783609 8.80913239,17.0597627 Z" id="Shape"></path>
                        <path d="M7.85245255,12.8525092 C11.027287,12.1452236 13.1774394,9.28678537 12.9884612,6.11864813 C12.8372786,3.58664942 11.1826691,1.29320265 8.78894473,0.443622915 C8.20101242,0.234366823 7.56268592,0.146479264 6.94955651,0 C6.64299181,0 6.33642711,0 6.02566289,0 C5.73589625,0.0502214621 5.43773058,0.0878875587 5.15216346,0.150664386 C1.76315368,0.899801196 -0.386998755,3.97586575 0.0581499903,7.42022103 C0.532695351,11.0822026 4.24086839,13.6560526 7.85245255,12.8525092 Z" id="Shape"></path>
                        <path d="M31.0413159,13.0070708 C29.6269237,12.9911614 28.2125314,13.0070708 26.7981392,13.0070708 C26.7315334,13.0070708 26.6688457,13.0229803 26.5591421,13.0349123 C26.5591421,13.7746996 26.5591421,14.5025549 26.5591421,15.2383649 C25.8382331,15.2383649 25.1682578,15.2383649 24.4630207,15.2383649 C24.4630207,14.4985775 24.4630207,13.7746996 24.4630207,13.0229803 C24.3533171,13.0150255 24.2906294,13.0070708 24.2201057,13.0070708 C22.8096314,13.0070708 21.3913212,13.0030935 19.9769289,13.0070708 C19.7967016,13.0070708 19.6125564,13.0150255 19.4323291,13.0508217 C17.998347,13.3252589 17.014933,14.526419 17.007097,16.0417898 C16.995343,18.2929706 16.999261,20.5441514 17.011015,22.7953321 C17.011015,22.9345394 17.0932926,23.1135202 17.1951602,23.2089767 C18.7858618,24.7362795 20.3922352,26.247673 21.9868547,27.7709985 C22.2807035,28.0613451 22.5314545,28.4033973 22.7626156,28.7374948 C22.8840731,28.920453 23.0016126,29 23.2171017,29 C25.7833813,28.9880679 28.3457429,28.9920453 30.9081045,28.9920453 C31.1353475,28.9880679 31.3665086,28.9840906 31.5937517,28.9403397 C33.0003079,28.6659025 33.9915579,27.4567877 33.9954759,25.9891451 C34.0033119,22.6601022 33.9993939,19.3310592 33.9954759,16.0020163 C33.9954759,15.8548543 33.9915579,15.7076923 33.96805,15.5645077 C33.717299,14.0570916 32.5497398,13.0269576 31.0413159,13.0070708 Z M26.8255651,25.8141417 C26.829483,26.0567601 26.7589593,26.1323298 26.5238803,26.1243751 C25.8343151,26.1084657 25.1486679,26.1203977 24.4591027,26.1203977 C24.372907,26.1203977 24.2906294,26.1084657 24.1770078,26.100511 C24.1770078,24.6328684 24.1770078,23.1851126 24.1770078,21.7055379 C23.5618843,21.7055379 22.9741867,21.7055379 22.3081294,21.7055379 C23.393411,20.3969894 24.4395128,19.1441237 25.5012864,17.8634167 C26.5591421,19.1441237 27.589572,20.3969894 28.6787715,21.7095153 C28.0205502,21.7095153 27.4406886,21.7095153 26.8177291,21.7095153 C26.8177291,21.8248584 26.8177291,21.9322469 26.8177291,22.0316807 C26.8216471,23.292501 26.8138111,24.5533214 26.8255651,25.8141417 Z" id="Shape"></path>
                    </g>
                </g>
            </g>
        </g>
    </g>
</svg>