<?xml version="1.0" encoding="UTF-8"?>
<svg width="289px" height="246px" viewBox="0 0 289 246" version="1.1" xmlns="http://www.w3.org/2000/svg" xmlns:xlink="http://www.w3.org/1999/xlink">
    <!-- Generator: Sketch 49.2 (51160) - http://www.bohemiancoding.com/sketch -->
    <title>17</title>
    <desc>Created with Sketch.</desc>
    <defs></defs>
    <g id="Page-1" stroke="none" stroke-width="1" fill="none" fill-rule="evenodd">
        <g id="首页" transform="translate(-1375.000000, -3718.000000)" fill-rule="nonzero">
            <g id="Group-44" transform="translate(1375.000000, 3718.000000)">
                <g id="Group-40">
                    <path d="M265.301729,221.84178 C261.822758,235.812896 249.477969,246 234.869997,246 C221.30942,246 209.759436,237.341437 205.363851,224.861666 L83.6456058,224.861666 C79.2497313,237.350953 67.6907772,246 54.1299108,246 C39.5219393,246 27.1959567,235.812896 23.7074383,221.84178 C8.519349,215.494629 -1.1597923,199.827152 0.111837372,182.435344 L3.09517584,141.976144 C4.26409133,125.823952 14.4672191,111.545455 29.0847387,104.890634 L42.2153632,41.8202105 C47.0223835,18.7620449 69.7013695,0 92.7825317,0 L196.226634,0 C219.307796,0 241.986782,18.7525291 246.784255,41.8202105 L259.914879,104.890634 C274.532399,111.545167 284.735527,125.823952 285.91399,141.976144 L288.88807,182.435344 C290.1597,199.82744 280.489818,215.494917 265.301729,221.84178 Z" id="Shape-Copy-3" fill="#FFFFFF"></path>
                    <g id="位置-copy-3" transform="translate(107.000000, 29.000000)" fill="#FBBB02">
                        <path d="M78,38.0543934 C78,38.8005579 77.9812949,39.5094143 77.9438848,40.1809624 C77.9064747,40.8525105 77.8503596,41.5613668 77.7755395,42.3075313 C77.1021582,48.5006973 75.7366906,54.4513598 73.6791366,60.1595188 C71.6215827,65.8676778 69.0215827,71.3519874 65.8791367,76.6124476 C62.7366906,81.8729079 59.1079137,86.9281729 54.9928058,91.7782427 C50.8776979,96.6283125 46.4258993,101.291841 41.6374101,105.768828 C40.9640288,106.589609 40.1035972,107 39.0561151,107 C37.933813,107 37.0359712,106.589609 36.3625899,105.768828 C31.5741007,101.291841 27.1035971,96.5910042 22.9510792,91.666318 C18.7985612,86.7416318 15.1323741,81.5930962 11.9525181,76.2207113 C8.772662,70.8483264 6.15395695,65.2707462 4.09640294,59.4879707 C2.03884892,53.7051952 0.710791385,47.6799162 0.112230323,41.4121339 C0.112230323,40.8152022 0.0935252689,40.2555788 0.0561151613,39.7332636 C0.0187050538,39.2109484 0,38.651325 0,38.0543934 C0,32.8312413 1.02877697,27.9065551 3.08633091,23.2803348 C5.14388485,18.6541144 7.9309352,14.6248257 11.4474819,11.1924687 C14.9640287,7.76011166 19.0978416,5.03661095 23.8489208,3.02196657 C28.5999999,1.00732219 33.6690646,-2.85050391e-15 39.056115,0 C44.4431654,2.85050391e-15 49.4935251,1.00732219 54.2071941,3.02196657 C58.9208631,5.03661095 63.035971,7.76011166 66.5525178,11.1924687 C70.0690647,14.6248257 72.856115,18.6541144 74.9136689,23.2803348 C76.9712227,27.9065551 77.9999997,32.8312413 77.9999998,38.0543934 L78,38.0543934 Z" id="Shape"></path>
                    </g>
                    <g id="安全防护" transform="translate(129.000000, 54.000000)" fill="#000000">
                        <path d="M17,0 C17,0 14.7010912,5.74671429 0,5.74671429 L0,29.3052857 C-1.47106714e-15,38.617 17,46 17,46 C17,46 34,38.617 34,29.3052857 L34,5.74671429 C19.245908,5.74671429 17,0 17,0 Z M16.9304365,22.1095714 L2.13328137,22.1095714 L2.13328137,7.90542857 C13.7238893,7.90542857 16.4964926,3.82457143 16.933749,3.01957143 L16.933749,22.1095714 L16.9304365,22.1095714 Z M31.8667186,28.5167143 C31.8667186,36.6554286 17.0231878,43.1085714 17,43.1184286 L17,22.1095714 L31.8667186,22.1095714 L31.8667186,28.5167143 Z" id="Shape"></path>
                    </g>
                </g>
            </g>
        </g>
    </g>
</svg>