<?xml version="1.0" encoding="UTF-8"?>
<svg width="23px" height="22px" viewBox="0 0 23 22" version="1.1" xmlns="http://www.w3.org/2000/svg" xmlns:xlink="http://www.w3.org/1999/xlink">
    <!-- Generator: Sketch 49.2 (51160) - http://www.bohemiancoding.com/sketch -->
    <title>18</title>
    <desc>Created with Sketch.</desc>
    <defs></defs>
    <g id="Page-1" stroke="none" stroke-width="1" fill="none" fill-rule="evenodd">
        <g id="移动端首页" transform="translate(-176.000000, -2926.000000)" fill="#000000" fill-rule="nonzero">
            <g id="上门-copy-3" transform="translate(187.500000, 2937.000000) rotate(-180.000000) translate(-187.500000, -2937.000000) translate(176.000000, 2926.000000)">
                <g id="Group-45">
                    <path d="M18.9977577,0.00585539237 C17.0831317,-0.0154903058 13.0788583,0.0272010906 12.9303555,0.0432103642 C12.9303555,1.03578533 12.9303555,2.01235102 12.9303555,2.99958957 C11.9544796,2.99958957 11.0475515,2.99958957 10.0928903,2.99958957 C10.0928903,2.0070146 10.0928903,1.03578533 10.0928903,0.0272010906 C9.94438742,0.0165282415 3.52694274,0.0165282415 3.28297377,0.0645560625 C1.34182934,0.432769357 0.0106073466,2.04436957 1.63424829e-13,4.07754733 L0.00316250575,14.4488962 C0.00434256351,18.3148911 3.13930725,21.4479425 7.00530211,21.4467624 C7.00762111,21.4467617 7.0099401,21.4467599 7.01225909,21.4467569 C15.3370692,21.4359421 19.5815081,21.4148806 19.7455757,21.3835722 C21.6495944,21.0153589 22.9914237,19.3930858 22.9967274,17.4239451 C23.0073347,12.9573578 22.9914237,3.62928766 22.9596017,3.43717638 C22.6201666,1.41467147 21.039672,0.0325375151 18.9977577,0.00585539237 Z M13.2910053,17.1891425 C13.2963089,17.5146643 13.2008428,17.6160564 12.8826224,17.6053836 C11.9491759,17.5840379 11.0210331,17.6000471 10.0875866,17.6000471 C9.97090579,17.6000471 9.85952865,17.5840379 9.70572213,17.573365 C9.70572213,15.6042244 9.70572213,13.6617658 9.70572213,11.6766159 C8.87304542,11.6766159 8.07749442,11.6766159 7.17586996,11.6766159 C8.64498747,9.92093221 10.0610682,8.23995848 11.4983637,6.52162977 C12.9303555,8.23995848 14.3252216,9.92093221 15.7996427,11.6819523 C14.9086256,11.6819523 14.123682,11.6819523 13.2803979,11.6819523 C13.2803979,11.8367086 13.2803979,11.9807921 13.2803979,12.1142027 C13.2857016,13.8058493 13.2750943,15.4974959 13.2910053,17.1891425 Z" id="Shape"></path>
                </g>
            </g>
        </g>
    </g>
</svg>