<?xml version="1.0" encoding="UTF-8"?>
<svg width="502px" height="427px" viewBox="0 0 502 427" version="1.1" xmlns="http://www.w3.org/2000/svg" xmlns:xlink="http://www.w3.org/1999/xlink">
    <!-- Generator: Sketch 49.2 (51160) - http://www.bohemiancoding.com/sketch -->
    <title>21</title>
    <desc>Created with Sketch.</desc>
    <defs></defs>
    <g id="Page-1" stroke="none" stroke-width="1" fill="none" fill-rule="evenodd">
        <g id="首页" transform="translate(-165.000000, -6796.000000)" fill-rule="nonzero">
            <g id="Group-49" transform="translate(165.000000, 6796.000000)">
                <g id="Group-50">
                    <path d="M460.835528,385.06683 C454.792473,409.317507 433.349275,427 407.974874,427 C384.419824,427 364.357221,411.970707 356.721983,390.308664 L145.294443,390.308664 C137.658703,411.987223 117.58052,427 94.0249662,427 C68.6505658,427 47.2400355,409.317507 41.1803945,385.06683 C14.7983156,374.049619 -2.01458732,346.854447 0.194264225,316.666228 L5.37639541,246.438266 C7.40682991,218.401737 25.12991,193.617518 50.5208956,182.066264 L73.3291085,72.5903654 C81.6790191,32.5666389 121.072967,0 161.165505,0 L340.850417,0 C380.942954,0 420.336902,32.5501217 428.670228,72.5903654 L451.478441,182.066264 C476.869426,193.617017 494.592506,218.401737 496.639526,246.438266 L501.805575,316.666228 C504.014427,346.854947 487.217607,374.05012 460.835528,385.06683 Z" id="Shape-Copy-4" fill-opacity="0.45" fill="#000000"></path>
                    <g id="奖杯" transform="translate(170.000000, 64.000000)">
                        <polygon id="Shape" fill="#FFB300" points="70 109 92 109 92 131 70 131"></polygon>
                        <path d="M98.9820972,141 L64,141 L64,129.818514 C64,127.717418 65.6828645,126 67.741688,126 L95.258312,126 C97.3171355,126 99,127.717418 99,129.818514 L99,141 L98.9820972,141 Z" id="Shape" fill="#FFCA28"></path>
                        <path d="M117.226676,180 L46.7553559,180 C44.6890117,180 43,178.290132 43,176.198272 L43,143.801728 C43,141.709868 44.6890117,140 46.7553559,140 L117.244644,140 C119.310988,140 121,141.709868 121,143.801728 L121,176.198272 C120.982032,178.308322 119.310988,180 117.226676,180 Z" id="Shape" fill="#707070"></path>
                        <path d="M104.136064,171 L58.8639356,171 C57.8244331,171 57,170.15037 57,169.119967 L57,150.880033 C57,149.831553 57.8423555,149 58.8639356,149 L104.136064,149 C105.175567,149 106,149.84963 106,150.880033 L106,169.10189 C106,170.15037 105.175567,171 104.136064,171 Z" id="Shape" fill="#CFD8DC"></path>
                        <path d="M35.9240322,19.3452685 L35.9240322,70.3324808 C20.9318315,68.2378517 9.35670759,55.3299233 9.35670759,39.7544757 L9.35670759,19.3452685 L35.9240322,19.3452685 Z M45.2628493,10 L7.47820989,10 C3.34551495,10 0,13.3478261 0,17.483376 L0,39.7723785 C-1.27119323e-15,61.9897698 17.997797,80 40.1998508,80 L45.2628493,80 L45.2628493,10 Z M153.661112,19.3452685 L153.661112,38.8235294 C153.661112,54.5780051 142.139659,67.7007673 127.093787,70.1892583 L127.093787,19.3452685 L153.661112,19.3452685 Z M155.53961,10 L117.75497,10 L117.75497,79.9820972 L121.887665,79.9820972 C144.590652,79.9820972 162.999929,61.5601023 162.999929,38.8414322 L162.999929,17.483376 C163.017819,13.3478261 159.654414,10 155.53961,10 Z" id="Shape" fill="#FFB300"></path>
                        <path d="M80.5089068,114 C51.5095886,114 28,90.508983 28,61.532573 L28,3.52632401 C28,1.58506483 29.586318,0 31.5291119,0 L129.470878,0 C131.413672,0 132.99999,1.58506483 132.99999,3.52632401 L132.99999,61.532573 C133.017814,90.508983 109.508225,114 80.5089068,114 Z" id="Shape" fill="#FFCA28"></path>
                        <path d="M130,80.0308609 L103.78117,46 L67,72.0422306 L96.7455471,111 C104.564885,108.448565 110.033079,105.034921 115.251908,100.741473 C121.468193,95.621007 126.455471,88.8113156 130,80.0308609 Z" id="Shape" fill="#FFB806"></path>
                        <path d="M83.6960763,30.0345054 L89.3436493,41.2283845 C89.6142998,41.776584 90.1556007,42.1479449 90.7690751,42.2363641 L103.381387,44.0401172 C104.933116,44.2523234 105.546591,46.1268119 104.427902,47.187843 L95.2979596,55.9059827 C94.8468755,56.3303952 94.6483985,56.94933 94.7566587,57.5328972 L96.903819,69.840859 C97.1744695,71.3439866 95.5505667,72.493437 94.1612276,71.7860829 L82,65.5259988 L69.8387724,71.7860829 C68.4494333,72.493437 66.8435739,71.3439866 67.096181,69.840859 L69.2433413,57.5328972 C69.3516015,56.9316462 69.1531245,56.3303952 68.7020404,55.9059827 L59.572098,47.187843 C58.4534094,46.1268119 59.0668838,44.2523234 60.6186131,44.0401172 L73.2309249,42.2363641 C73.8443993,42.1479449 74.3676568,41.776584 74.6563507,41.2283845 L80.3039237,30.0345054 C81.007615,28.6551649 83.0104284,28.6551649 83.6960763,30.0345054 Z" id="Shape" fill="#FFF8E1"></path>
                    </g>
                </g>
            </g>
        </g>
    </g>
</svg>