<?xml version="1.0" encoding="UTF-8"?>
<svg width="34px" height="34px" viewBox="0 0 34 34" version="1.1" xmlns="http://www.w3.org/2000/svg" xmlns:xlink="http://www.w3.org/1999/xlink">
    <!-- Generator: Sketch 49.2 (51160) - http://www.bohemiancoding.com/sketch -->
    <title>22</title>
    <desc>Created with Sketch.</desc>
    <defs></defs>
    <g id="Page-1" stroke="none" stroke-width="1" fill="none" fill-rule="evenodd">
        <g id="首页" transform="translate(-741.000000, -6672.000000)" fill="#FBBB02">
            <g id="Page-1" transform="translate(741.000000, 6672.000000)">
                <g id="Group-28" transform="translate(0.000000, 4.000000)">
                    <path d="M2.62714503,14.4310288 L4.17265897,12.7241153 C4.63621515,12.2586829 4.79106055,11.7929225 4.79106055,11.1723459 C4.79106055,10.3966252 4.63621515,10.086009 4.17265897,10.086009 C3.70910279,10.086009 3.55458406,10.5517694 3.55458406,11.3274901 L3.55458406,11.7929225 L1.54518726,11.7929225 C1.54518726,10.7069135 1.70003267,9.93086483 2.16358885,9.46543241 C2.4726263,8.84485586 3.24521993,8.53423959 4.32717769,8.53423959 C5.40913546,8.53423959 6.02721036,8.84485586 6.64528527,9.31028828 C6.95432272,9.77604869 7.10916812,10.3966252 7.10916812,11.1723459 C7.10916812,12.2586829 6.79980399,13.1895477 6.02721036,13.9655964 L4.63621515,15.5173658 L4.32717769,15.8276541 C4.17265897,15.9824702 4.17265897,15.8276541 4.17265897,15.8276541 L6.95432272,15.8276541 L6.95432272,18.3102883 L1.39066854,18.3102883 C1.39066854,16.913663 1.85455139,15.5173658 2.62714503,14.4310288 Z M1.39066854,22.8104523 L7.10916812,22.8104523 C7.88176176,22.8104523 8.50016334,22.1895477 8.50016334,21.413827 L8.50016334,7.13794234 C8.50016334,6.36189366 7.88176176,5.7413171 7.10916812,5.7413171 L1.39066854,5.7413171 C0.618074905,5.7413171 0,6.36189366 0,7.13794234 L0,21.2583549 C0,22.0347316 0.618074905,22.8104523 1.39066854,22.8104523 Z M14.2180096,6.20707752 C15.1454486,6.20707752 15.7635235,6.05160538 16.2270797,5.89646124 C16.5364438,5.7413171 16.8451546,4.96559641 17,4.18954772 L19.0090701,4.18954772 L19.0090701,15.5173658 L16.072561,15.5173658 L16.072561,8.06913517 L14.2180096,8.06913517 L14.2180096,6.20707752 Z M11.2818271,22.8104523 L22.5636542,22.8104523 C23.3365745,22.8104523 23.9546494,22.1895477 23.9546494,21.413827 L23.9546494,1.39662524 C23.9546494,0.620904552 23.3365745,0 22.5636542,0 L11.2818271,0 C10.5089068,0 9.89083188,0.620904552 9.89083188,1.39662524 L9.89083188,21.2583549 C9.89083188,22.0347316 10.5089068,22.8104523 11.2818271,22.8104523 Z M29.6728223,19.8620577 C28.7453833,19.8620577 27.9727896,19.7069135 27.5092335,19.2411531 C27.0453506,18.7757207 26.7363131,18 26.7363131,16.913663 L28.9002287,16.913663 C28.9002287,17.3790954 28.9002287,17.8448559 29.0544207,18 C29.0544207,18.1551441 29.3637849,18.3102883 29.5179769,18.3102883 C29.827341,18.3102883 29.9818598,18.1551441 30.1363785,17.8448559 L30.1363785,17.0691352 C30.1363785,16.6033748 30.1363785,16.4482306 29.9818598,16.1379423 C29.827341,15.9824702 29.6728223,15.9824702 29.3637849,15.9824702 L28.7453833,15.9824702 L28.7453833,14.586501 L29.0544207,14.586501 C29.3637849,14.586501 29.6728223,14.586501 29.827341,14.4310288 C29.9818598,14.2755567 29.9818598,13.9655964 29.9818598,13.499836 C29.9818598,12.8795874 29.827341,12.5689712 29.3637849,12.5689712 C29.2089394,12.5689712 29.0544207,12.5689712 28.9002287,12.8795874 C28.9002287,13.0344036 28.7453833,13.499836 28.7453833,13.8101243 L26.7363131,13.8101243 C26.7363131,12.1035388 27.6637522,11.1723459 29.3637849,11.1723459 C30.2908972,11.1723459 31.0638175,11.3274901 31.5273737,11.7929225 C31.8364112,12.1035388 32.1454486,12.7241153 32.1454486,13.499836 C32.1454486,13.9655964 32.1454486,14.2755567 31.8364112,14.4310288 C31.6815657,14.7413171 31.372855,15.0519334 30.9089721,15.0519334 C31.8364112,15.2067495 32.2999673,15.8276541 32.2999673,16.913663 C32.6090048,18.9311928 31.6815657,19.8620577 29.6728223,19.8620577 Z M32.6090048,8.53423959 L26.8908319,8.53423959 C26.1182382,8.53423959 25.5001633,9.15514414 25.5001633,9.93086483 L25.5001633,21.2583549 C25.5001633,22.0347316 26.1182382,22.6549801 26.8908319,22.6549801 L32.6090048,22.6549801 C33.3819251,22.6549801 34,22.0347316 34,21.2583549 L34,9.93086483 C34,9.15514414 33.3819251,8.53423959 32.6090048,8.53423959 Z M32.6090048,24.2067495 L1.39066854,24.2067495 C0.618074905,24.2067495 0,24.8273261 0,25.6033748 C0,26.3794234 0.618074905,27 1.39066854,27 L32.6090048,27 C33.3819251,27 34,26.3794234 34,25.6033748 C34,24.8273261 33.3819251,24.2067495 32.6090048,24.2067495 Z" id="Fill-1"></path>
                </g>
            </g>
        </g>
    </g>
</svg>