<?xml version="1.0" encoding="UTF-8"?>
<svg width="34px" height="34px" viewBox="0 0 34 34" version="1.1" xmlns="http://www.w3.org/2000/svg" xmlns:xlink="http://www.w3.org/1999/xlink">
    <!-- Generator: Sketch 49.2 (51160) - http://www.bohemiancoding.com/sketch -->
    <title>23</title>
    <desc>Created with Sketch.</desc>
    <defs>
        <polygon id="path-1" points="18.2455625 0.301708861 32.725625 0.301708861 32.725625 24.7710127 18.2455625 24.7710127"></polygon>
    </defs>
    <g id="Page-1" stroke="none" stroke-width="1" fill="none" fill-rule="evenodd">
        <g id="首页" transform="translate(-986.000000, -6669.000000)">
            <g id="Page-1" transform="translate(986.000000, 6669.000000)">
                <g id="Group-5" transform="translate(1.000000, 4.000000)">
                    <path d="M10.2279262,13.7647363 C7.93005796,12.6363114 6.39480375,10.1458982 6.39480375,7.21410273 C6.39480375,3.22987581 9.35001145,0 12.9951436,0 C16.6402757,0 19.5951701,3.22987581 19.5951701,7.21410273 C19.5951701,10.1378336 18.0646156,12.6235942 15.7770869,13.7569819 C21.4352819,15.102841 25.7195811,20.469528 26,26.9810792 L0,27 C0.359374812,20.5734373 4.62080185,15.13603 10.2279262,13.7647363" id="Fill-1" fill="#FBBB02"></path>
                    <mask id="mask-2" fill="white">
                        <use xlink:href="#path-1"></use>
                    </mask>
                    <g id="Clip-4"></g>
                    <path d="M18.3093125,1.15329114 C19.8255625,2.79632911 20.7680625,5.09791139 20.7680625,7.6456962 C20.7680625,9.9985443 19.9636875,12.1418987 18.6461875,13.7501266 L18.6461875,13.750443 C22.7493125,15.7235443 25.8511875,19.8029747 26.862125,24.7710127 L32.725875,24.7665823 C32.477125,18.8624684 28.6793125,13.9963291 23.6636875,12.7757595 C25.6911875,11.7479114 27.0480625,9.49379747 27.0480625,6.8428481 C27.0480625,3.23018987 24.4286875,0.301708861 21.1974375,0.301708861 C20.120875,0.301708861 19.112125,0.627025316 18.2455625,1.19411392" id="Fill-3" fill="#FBBB02" mask="url(#mask-2)"></path>
                </g>
            </g>
        </g>
    </g>
</svg>