<?xml version="1.0" encoding="UTF-8"?>
<svg width="34px" height="34px" viewBox="0 0 34 34" version="1.1" xmlns="http://www.w3.org/2000/svg" xmlns:xlink="http://www.w3.org/1999/xlink">
    <!-- Generator: Sketch 49.2 (51160) - http://www.bohemiancoding.com/sketch -->
    <title>24</title>
    <desc>Created with Sketch.</desc>
    <defs></defs>
    <g id="Page-1" stroke="none" stroke-width="1" fill="none" fill-rule="evenodd">
        <g id="首页" transform="translate(-1282.000000, -6670.000000)" fill="#FBBB02">
            <g id="Page-1" transform="translate(1282.000000, 6670.000000)">
                <g id="Group-29" transform="translate(2.000000, 3.000000)">
                    <g id="Group-6">
                        <path d="M3.18808831,19.8935507 L4.58067273,19.8935507 C4.96756883,19.8935507 5.27716623,20.2705507 5.27716623,20.7255648 L5.27716623,28.1679451 C5.27716623,28.6233676 4.96756883,28.9999592 4.58067273,28.9999592 L3.18808831,28.9999592 C2.80119221,28.9999592 2.49159481,28.6233676 2.49159481,28.1679451 L2.49159481,20.7255648 C2.49159481,20.2705507 2.80119221,19.8935507 3.18808831,19.8935507 Z M27.3616468,6.50045211 L21.1403091,12.827762 C20.5831143,13.3930577 19.7167247,13.4714803 19.0822312,13.0164662 L12.0714,8.03949437 L2.86319221,16.5017761 C2.56889351,16.7848324 1.8571013,17.2557761 1.45490649,17.2557761 C0.557114286,17.2557761 -8.05194804e-05,16.8318042 -8.05194804e-05,15.9209592 C-8.05194804e-05,15.4655366 0.340516883,14.8691986 0.665412987,14.5706211 L10.833413,5.05617042 C11.3906078,4.53743803 12.2264,4.47494507 12.8451922,4.91443803 L19.7940234,9.86077606 L25.2258675,4.34914225 L21.1560104,0.204184507 L30.7821143,0.0473394366 L30.7821143,9.97024085 L27.3616468,6.50045211 Z" id="Fill-1"></path>
                        <path d="M27.7729583,12.2007659 L29.214625,12.2007659 C29.614625,12.2007659 29.9350417,12.5830585 29.9350417,13.0453756 L29.9350417,28.1554732 C29.9350417,28.6177902 29.614625,29.0000829 29.214625,29.0000829 L27.7729583,29.0000829 C27.3725417,29.0000829 27.052125,28.6177902 27.052125,28.1554732 L27.052125,13.0453756 C27.052125,12.5830585 27.3725417,12.2007659 27.7729583,12.2007659 M19.332125,17.2373268 L20.773375,17.2373268 C21.1737917,17.2373268 21.4942083,17.6196195 21.4942083,18.0823512 L21.4942083,28.1554732 C21.4942083,28.6177902 21.1737917,29.0000829 20.773375,29.0000829 L19.332125,29.0000829 C18.9312917,29.0000829 18.6112917,28.6177902 18.6112917,28.1554732 L18.6112917,18.0823512 C18.6112917,17.6196195 18.9312917,17.2373268 19.332125,17.2373268 M10.907125,12.2007659 L12.348375,12.2007659 C12.7487917,12.2007659 13.0692083,12.5830585 13.0692083,13.0453756 L13.0692083,28.1554732 C13.0692083,28.6177902 12.7487917,29.0000829 12.348375,29.0000829 L10.907125,29.0000829 C10.5067083,29.0000829 10.1862917,28.6177902 10.1862917,28.1554732 L10.1862917,13.0453756 C10.1862917,12.5830585 10.5067083,12.2007659 10.907125,12.2007659" id="Fill-4"></path>
                    </g>
                </g>
            </g>
        </g>
    </g>
</svg>