<?xml version="1.0" encoding="UTF-8"?>
<svg width="34px" height="34px" viewBox="0 0 34 34" version="1.1" xmlns="http://www.w3.org/2000/svg" xmlns:xlink="http://www.w3.org/1999/xlink">
    <!-- Generator: Sketch 49.2 (51160) - http://www.bohemiancoding.com/sketch -->
    <title>25</title>
    <desc>Created with Sketch.</desc>
    <defs>
        <polygon id="path-1" points="0 0.00886363636 29.9911364 0.00886363636 29.9911364 30 0 30"></polygon>
    </defs>
    <g id="Page-1" stroke="none" stroke-width="1" fill="none" fill-rule="evenodd">
        <g id="首页" transform="translate(-1603.000000, -6671.000000)">
            <g id="Page-1" transform="translate(1603.000000, 6671.000000)">
                <g id="Group-4" transform="translate(2.000000, 2.000000)">
                    <mask id="mask-2" fill="white">
                        <use xlink:href="#path-1"></use>
                    </mask>
                    <g id="Clip-3"></g>
                    <path d="M19.7138864,23.7768409 C17.78025,24.5715 15.5578636,24.1204773 14.0875227,22.6341136 C12.6171818,21.1480909 12.1893409,18.9212727 13.0044545,16.9961591 C13.8199091,15.0710455 15.7167273,13.8284318 17.8071818,13.8505909 C20.6397955,13.8666136 22.9238864,16.1745682 22.9099091,19.0075227 C22.9099091,21.0983182 21.6475227,22.9818409 19.7138864,23.7768409 Z M13.88775,24.1682045 C10.13025,24.1682045 7.08115909,22.6313864 7.08115909,20.7318409 L7.08115909,18.7988864 C7.08115909,20.4195682 9.30559091,21.5067273 12.2841136,21.8022955 L12.2841136,21.7941136 C12.7368409,22.7370682 13.4166136,23.5532045 14.2624091,24.1682045 L13.88775,24.1682045 Z M7.08115909,15.3625227 C7.08115909,16.8707045 9.01820455,17.9200227 11.6882045,18.28275 C11.649,18.5241136 11.6241136,18.7675227 11.6132045,19.0112727 C11.6200227,19.5321818 11.6916136,20.0496818 11.8255909,20.5528636 L11.8300227,20.5569545 C9.08468182,20.1110455 7.08115909,18.8282045 7.08115909,17.2954773 L7.08115909,15.3625227 Z M7.08115909,11.9261591 C7.08115909,13.6879773 9.71809091,14.8211591 13.1043409,14.9711591 C12.5745682,15.6072955 12.1753636,16.3416136 11.9299091,17.1325227 C11.9312727,17.1325227 11.9326364,17.1328636 11.934,17.1332045 L11.9299091,17.1332045 L11.9299091,17.1325227 C9.13309091,16.7070682 7.08115909,15.4201364 7.08115909,13.8587727 L7.08115909,11.9261591 Z M7.08115909,9.27695455 C7.08115909,7.3815 10.1135455,5.84059091 13.8751364,5.84059091 C17.6363864,5.84059091 20.6813864,7.37775 20.6813864,9.27695455 L20.6813864,10.4432045 C20.6858182,11.3680909 19.9484318,12.2091136 18.7654773,12.8258182 C18.46275,12.7719545 18.1562727,12.7412727 17.8491136,12.7341136 C16.5795682,12.7337727 15.3410455,13.1268409 14.304,13.8587727 L13.88775,13.8587727 C10.13025,13.8587727 7.08115909,12.3216136 7.08115909,10.4224091 L7.08115909,9.27695455 Z M24.9928636,0.00865909091 L4.99854545,0.00865909091 C2.23786364,0.00865909091 -0.000204545455,2.24672727 -0.000204545455,5.00740909 L-0.000204545455,25.0017273 C-0.000204545455,27.7617273 2.23786364,30.0001364 4.99854545,30.0001364 L24.9928636,30.0001364 C27.7535455,30.0001364 29.9912727,27.7617273 29.9912727,25.0017273 L29.9912727,5.00740909 C29.9912727,2.24672727 27.7535455,0.00865909091 24.9928636,0.00865909091 Z" id="Fill-2" fill="#FBBB02" mask="url(#mask-2)"></path>
                    <polygon id="Fill-1" fill="#FBBB02" mask="url(#mask-2)" points="15 19.1153457 16.8748849 19.1153457 16.8748849 22 19.1248082 22 19.1248082 19.1153457 21 19.1153457 17.906087 16"></polygon>
                </g>
            </g>
        </g>
    </g>
</svg>