<svg xmlns="http://www.w3.org/2000/svg" width="44" height="53" viewBox="0 0 44 53">
  <g fill="none" transform="translate(-1)">
    <path fill="#FBBB02" d="M31.9057968,33.670047 L22.5722669,39.4565903 C18.6783658,37.0626962 13.4483583,33.670047 13.4483583,33.670047 L0.92944576,46.0641279 L8.59700858,46.2502051 L8.79387242,52.3416526 L21.0719875,40.10846 C22.7839612,41.7546069 24.9001078,40.1404457 24.8437357,40.1889841 L37.523233,53.0659701 L37.7143559,46.2501251 L44.9863572,46.0641279 L31.9057968,33.670047 L31.9057968,33.670047 Z"/>
    <path fill="#FBBB02" d="M30.1881619,40.2423204 L34.3061959,40.9229773 C34.995827,41.0370762 35.7023002,40.8695017 36.2678972,40.4576645 C36.8332677,40.0446699 37.210187,39.4218189 37.3144888,38.7281946 L37.9360968,34.5955548 C38.0612437,33.7697146 38.5783613,33.0562006 39.3229941,32.681927 L43.0524034,30.8102804 C43.6773603,30.4977795 44.1500248,29.9437862 44.3665033,29.2788823 C44.5829753,28.612586 44.5239812,27.8870593 44.2027291,27.2647392 L42.2852006,23.5469547 C41.9025494,22.806585 41.9025494,21.925896 42.2852006,21.1855262 L44.2027291,17.4679816 C44.5239024,16.8456389 44.5828939,16.1201444 44.3665033,15.4538385 C44.1499451,14.7888546 43.6772805,14.2347813 43.0524034,13.9222805 L39.3229941,12.050394 C38.5778857,11.6759155 38.0606693,10.9616986 37.9360968,10.1352468 L37.3144888,6.00436628 C37.2102066,5.31077833 36.8332784,4.68797025 36.2678972,4.27505633 C35.7023655,3.86307187 34.995852,3.69543026 34.3061959,3.8095836 L30.1881619,4.49040045 C29.3675055,4.62642964 28.5320759,4.35445401 27.9475502,3.76096524 L25.0147657,0.781412063 C24.5243577,0.281667794 23.8545118,0.00016568537 23.1553633,0 C22.4564957,0.000322893916 21.786965,0.281784426 21.2967583,0.781332064 L18.3638143,3.7608853 C17.7793279,4.35438421 16.9439158,4.62636382 16.1232824,4.49032051 L12.0051687,3.80950366 C11.3155675,3.69548575 10.6091549,3.86311703 10.0436268,4.27497639 C9.47826241,4.68791863 9.10131722,5.31070733 8.99695548,6.00428633 L8.37534743,10.1368461 C8.25026973,10.9626719 7.7331647,11.6761798 6.9885299,12.050394 L3.25912058,13.9221206 C2.63408393,14.2346214 2.1614194,14.7886947 1.94494097,15.4536786 C1.72850124,16.1199633 1.78743517,16.845457 2.1085556,17.4678217 L4.02616395,21.1853663 C4.40881511,21.925736 4.40881511,22.8064251 4.02616395,23.5467948 L2.1085556,27.2645792 C1.78738693,27.8869587 1.72845174,28.6124966 1.94494097,29.2788024 C2.1614194,29.9436263 2.63408393,30.4976196 3.25912058,30.8102004 L6.9885299,32.681847 C7.73355985,33.0564825 8.25071232,33.7707118 8.37534743,34.5971541 L8.99695548,38.7278748 C9.10134529,39.421487 9.47827977,40.0443155 10.0436268,40.4573446 C10.6092088,40.8690816 11.3155915,41.0366483 12.0051687,40.9226574 L16.1232824,40.2420005 C16.9438759,40.1058959 17.7792817,40.377784 18.3638143,40.9711958 L21.2967583,43.950829 C21.7868546,44.45055 22.4564499,44.7320675 23.1553633,44.732241 C23.8545575,44.7321865 24.5244692,44.4506688 25.0148454,43.950829 L27.94763,40.9711958 C28.5322602,40.3779589 29.3676267,40.1062029 30.1881619,40.2423204 L30.1881619,40.2423204 Z"/>
    <path fill="#FFD65E" d="M23.1552836,37.489946 C14.6253153,37.489946 7.68468954,30.5294455 7.68468948,21.9755744 C7.68468948,13.4199442 14.6253153,6.45944364 23.1552836,6.45944364 C31.6863682,6.45944364 38.626994,13.4199441 38.6269939,21.9755744 C38.6269142,30.5294455 31.6862884,37.489946 23.1552836,37.489946 L23.1552836,37.489946 Z"/>
    <path fill="#FFF" d="M23.1553633,34.2517879 C16.4055415,34.2517879 10.9134476,28.7440005 10.9134476,21.9754945 C10.9134476,15.2053892 16.4055416,9.69752178 23.1553633,9.69752178 C29.9059027,9.69752178 35.3980764,15.2053892 35.3980764,21.9754945 C35.3980764,28.7440005 29.9059027,34.251788 23.1553633,34.2517879 Z"/>
  </g>
</svg>
