<svg xmlns="http://www.w3.org/2000/svg" width="44" height="53" viewBox="0 0 44 53">
  <g fill="none" opacity=".9" transform="translate(-1)">
    <path fill="#D8E3EB" d="M31.9057968,33.3269223 L22.5722669,39.0544962 C18.6783658,36.6849978 13.4483583,33.3269223 13.4483583,33.3269223 L0.92944576,45.5946978 L8.59700858,45.7788786 L8.79387242,51.8082495 L21.0719875,39.6997228 C22.7839612,41.3290942 24.9001078,39.7313826 24.8437357,39.7794264 L37.523233,52.5251856 L37.7143559,45.7787995 L44.9863572,45.5946978 L31.9057968,33.3269223 L31.9057968,33.3269223 Z"/>
    <path fill="#D8E3EB" d="M30.1881619,39.8322191 L34.3061959,40.5059395 C34.995827,40.6188757 35.7023002,40.4530089 36.2678972,40.0453686 C36.8332677,39.6365828 37.210187,39.0200791 37.3144888,38.3335234 L37.9360968,34.2429986 C38.0612437,33.4255743 38.5783613,32.7193316 39.3229941,32.3488721 L43.0524034,30.4962991 C43.6773603,30.1869829 44.1500248,29.6386352 44.3665033,28.9805072 C44.5829753,28.3210009 44.5239812,27.6028679 44.2027291,26.9868898 L42.2852006,23.3069925 C41.9025494,22.5741677 41.9025494,21.7024536 42.2852006,20.9696289 L44.2027291,17.289969 C44.5239024,16.6739684 44.5828939,15.9558673 44.3665033,15.2963516 C44.1499451,14.6381444 43.6772805,14.0897176 43.0524034,13.7804014 L39.3229941,11.9275909 C38.5778857,11.5569286 38.0606693,10.8499902 37.9360968,10.0319606 L37.3144888,5.943177 C37.2102066,5.25665726 36.8332784,4.6401961 36.2678972,4.2314901 C35.7023655,3.82370409 34.995852,3.65777088 34.3061959,3.77076091 L30.1881619,4.44463969 C29.3675055,4.57928264 28.5320759,4.31007865 27.9475502,3.72263801 L25.0147657,0.773448851 C24.5243577,0.278797375 23.8545118,0.000163996904 23.1553633,0 C22.4564957,0.00031960337 21.786965,0.278912818 21.2967583,0.773369668 L18.3638143,3.72255888 C17.7793279,4.31000957 16.9439158,4.57921748 16.1232824,4.44456056 L12.0051687,3.77068178 C11.3155675,3.65782581 10.6091549,3.82374879 10.0436268,4.23141097 C9.47826241,4.64014501 9.10131722,5.25658699 8.99695548,5.94309787 L8.37534743,10.0335436 C8.25026973,10.8509535 7.7331647,11.5571902 6.9885299,11.9275909 L3.25912058,13.7802431 C2.63408393,14.0895593 2.1614194,14.6379861 1.94494097,15.2961933 C1.72850124,15.955688 1.78743517,16.6737883 2.1085556,17.2898107 L4.02616395,20.9694705 C4.40881511,21.7022953 4.40881511,22.5740094 4.02616395,23.3068342 L2.1085556,26.9867315 C1.78738693,27.6027684 1.72845174,28.3209125 1.94494097,28.980428 C2.1614194,29.6384769 2.63408393,30.1868246 3.25912058,30.4962199 L6.9885299,32.3487929 C7.73355985,32.7196106 8.25071232,33.4265614 8.37534743,34.2445815 L8.99695548,38.3332069 C9.10134529,39.0197506 9.47827977,39.6362321 10.0436268,40.045052 C10.6092088,40.4525931 11.3155915,40.6184521 12.0051687,40.505623 L16.1232824,39.8319025 C16.9438759,39.6971848 17.7792817,39.9663022 18.3638143,40.5536667 L21.2967583,43.502935 C21.7868546,43.9975634 22.4564499,44.2762121 23.1553633,44.2763839 C23.8545575,44.2763299 24.5244692,43.9976811 25.0148454,43.502935 L27.94763,40.5536667 C28.5322602,39.9664754 29.3676267,39.6974887 30.1881619,39.8322191 L30.1881619,39.8322191 Z"/>
    <path fill="#B2C9DA" d="M23.1552836,37.1078936 C14.6253153,37.1078936 7.68468954,30.2183261 7.68468948,21.7516258 C7.68468948,13.2831843 14.6253153,6.39361676 23.1552836,6.39361676 C31.6863682,6.39361676 38.626994,13.2831842 38.6269939,21.7516258 C38.6269142,30.2183261 31.6862884,37.1078936 23.1552836,37.1078936 L23.1552836,37.1078936 Z"/>
    <path fill="#FFF" d="M23.1553633,33.9027349 C16.4055415,33.9027349 10.9134476,28.4510762 10.9134476,21.7515467 C10.9134476,15.0504341 16.4055416,9.5986963 23.1553633,9.5986963 C29.9059027,9.5986963 35.3980764,15.0504341 35.3980764,21.7515467 C35.3980764,28.4510763 29.9059027,33.9027349 23.1553633,33.9027349 Z"/>
  </g>
</svg>
