<svg xmlns="http://www.w3.org/2000/svg" width="44" height="55" viewBox="0 0 44 55">
  <g fill="none" opacity=".8" transform="translate(-1 .27)">
    <path fill="#F0C98D" d="M31.9057968,34.4244284 L22.5722669,40.34062 C18.6783658,37.8930904 13.4483583,34.4244284 13.4483583,34.4244284 L0.92944576,47.0962003 L8.59700858,47.2864465 L8.79387242,53.5143737 L21.0719875,41.0070949 C22.7839612,42.690124 24.9001078,41.0397973 24.8437357,41.0894232 L37.523233,54.2549196 L37.7143559,47.2863648 L44.9863572,47.0962003 L31.9057968,34.4244284 L31.9057968,34.4244284 Z"/>
    <path fill="#F0C98D" d="M30.1881619,41.1439544 L34.3061959,41.8398615 C34.995827,41.9565168 35.7023002,41.7851879 36.2678972,41.3641234 C36.8332677,40.9418756 37.210187,40.3050695 37.3144888,39.5959045 L37.9360968,35.3706724 C38.0612437,34.5263291 38.5783613,33.7968288 39.3229941,33.4141695 L43.0524034,31.5005884 C43.6773603,31.181086 44.1500248,30.6146804 44.3665033,29.9348792 C44.5829753,29.2536544 44.5239812,28.5118722 44.2027291,27.875609 L42.2852006,24.0745271 C41.9025494,23.3175693 41.9025494,22.4171483 42.2852006,21.6601905 L44.2027291,17.8593539 C44.5239024,17.2230674 44.5828939,16.4813182 44.3665033,15.8000836 C44.1499451,15.1202007 43.6772805,14.5537133 43.0524034,14.2342109 L39.3229941,12.3203846 C38.5778857,11.9375158 38.0606693,11.2072968 37.9360968,10.3623283 L37.3144888,6.13889483 C37.2102066,5.42976696 36.8332784,4.79300479 36.2678972,4.37083949 C35.7023655,3.94962447 34.995852,3.77822682 34.3061959,3.89493778 L30.1881619,4.59100842 C29.3675055,4.73008536 28.5320759,4.45201608 27.9475502,3.84523012 L25.0147657,0.798919694 C24.5243577,0.287978595 23.8545118,0.000169397571 23.1553633,0 C22.4564957,0.000330128393 21.786965,0.28809784 21.2967583,0.798837903 L18.3638143,3.84514839 C17.7793279,4.45194472 16.9439158,4.73001806 16.1232824,4.59092668 L12.0051687,3.89485605 C11.3155675,3.77828356 10.6091549,3.94967064 10.0436268,4.37075775 C9.47826241,4.79295202 9.10131722,5.42969437 8.99695548,6.1388131 L8.37534743,10.3639634 C8.25026973,11.2082919 7.7331647,11.937786 6.9885299,12.3203846 L3.25912058,14.2340474 C2.63408393,14.5535498 2.1614194,15.1200372 1.94494097,15.7999201 C1.72850124,16.481133 1.78743517,17.2228815 2.1085556,17.8591903 L4.02616395,21.660027 C4.40881511,22.4169848 4.40881511,23.3174058 4.02616395,24.0743636 L2.1085556,27.8754455 C1.78738693,28.5117694 1.72845174,29.2535631 1.94494097,29.9347975 C2.1614194,30.6145169 2.63408393,31.1809225 3.25912058,31.5005067 L6.9885299,33.4140878 C7.73355985,33.797117 8.25071232,34.5273487 8.37534743,35.3723075 L8.99695548,39.5955775 C9.10134529,40.3047302 9.47827977,40.9415133 10.0436268,41.3637963 C10.6092088,41.7847584 11.3155915,41.9560793 12.0051687,41.8395345 L16.1232824,41.1436274 C16.9438759,41.0044733 17.7792817,41.2824531 18.3638143,41.8891604 L21.2967583,44.9355526 C21.7868546,45.4464699 22.4564499,45.7342949 23.1553633,45.7344723 C23.8545575,45.7344166 24.5244692,45.4465914 25.0148454,44.9355526 L27.94763,41.8891604 C28.5322602,41.282632 29.3676267,41.0047872 30.1881619,41.1439544 L30.1881619,41.1439544 Z"/>
    <path fill="#D4AB6D" d="M23.1552836,38.3299128 C14.6253153,38.3299128 7.68468954,31.2134614 7.68468948,22.4679398 C7.68468948,13.7206197 14.6253153,6.60416825 23.1552836,6.60416825 C31.6863682,6.60416825 38.626994,13.7206196 38.6269939,22.4679398 C38.6269142,31.2134614 31.6862884,38.3299128 23.1552836,38.3299128 L23.1552836,38.3299128 Z"/>
    <path fill="#FFF" d="M23.1553633,35.0192034 C16.4055415,35.0192034 10.9134476,29.3880133 10.9134476,22.4678581 C10.9134476,15.5460677 16.4055416,9.91479593 23.1553633,9.91479593 C29.9059027,9.91479593 35.3980764,15.5460677 35.3980764,22.4678581 C35.3980764,29.3880133 29.9059027,35.0192034 23.1553633,35.0192034 Z"/>
  </g>
</svg>
