<?xml version="1.0" encoding="UTF-8"?>
<svg width="22px" height="22px" viewBox="0 0 22 22" version="1.1" xmlns="http://www.w3.org/2000/svg" xmlns:xlink="http://www.w3.org/1999/xlink">
    <!-- Generator: Sketch 49.2 (51160) - http://www.bohemiancoding.com/sketch -->
    <title>41</title>
    <desc>Created with Sketch.</desc>
    <defs></defs>
    <g id="Page-1" stroke="none" stroke-width="1" fill="none" fill-rule="evenodd">
        <g id="首页" transform="translate(-1763.000000, -9362.000000)" fill="#FFFFFF" fill-rule="nonzero">
            <g id="Group" transform="translate(0.000000, 9320.000000)">
                <g id="关闭" transform="translate(1763.000000, 42.000000)">
                    <g id="Group-85">
                        <path d="M19.4616435,21.565136 C20.0413844,22.1449409 20.9847291,22.1449409 21.5645252,21.565136 C22.1442937,20.9853312 22.1442937,20.0419273 21.5645252,19.4621224 L13.1028679,10.9999897 L13.2004249,10.9024542 L21.5644977,2.53780174 C21.8453325,2.25694926 22,1.88352777 22,1.48632252 C22,1.08911728 21.8453325,0.715695786 21.5644977,0.434843307 C20.9847567,-0.144933977 20.041412,-0.14496156 19.4616159,0.434843307 L11.0000414,8.89697604 L2.53838408,0.434843307 C2.24849983,0.144940873 1.86773531,3.43446827e-06 1.4869708,3.43446827e-06 C1.10617871,3.43446827e-06 0.725414193,0.144940846 0.435529937,0.434843307 C0.154667488,0.715695786 0,1.08911728 0,1.48632252 C0,1.88352777 0.154667488,2.25694926 0.435529937,2.53780174 L8.89715966,10.9999897 L0.43552991,19.4621224 C-0.1442386,20.0419273 -0.1442386,20.9853311 0.43552991,21.565136 C1.01529842,22.1449409 1.95864312,22.1449685 2.53838405,21.565136 L11.0000138,13.1029757 L19.4616435,21.565136 Z" id="Shape"></path>
                    </g>
                </g>
            </g>
        </g>
    </g>
</svg>