<?xml version="1.0" encoding="UTF-8"?>
<svg width="152px" height="152px" viewBox="0 0 152 152" version="1.1" xmlns="http://www.w3.org/2000/svg" xmlns:xlink="http://www.w3.org/1999/xlink">
    <!-- Generator: Sketch 49.2 (51160) - http://www.bohemiancoding.com/sketch -->
    <title>48</title>
    <desc>Created with Sketch.</desc>
    <defs></defs>
    <g id="Page-1" stroke="none" stroke-width="1" fill="none" fill-rule="evenodd">
        <g id="招商加盟" transform="translate(-330.000000, -1616.000000)">
            <g id="Group-16" transform="translate(330.000000, 1616.000000)">
                <g id="Group-17">
                    <circle id="Oval-2-Copy-8" fill="#F1F1F1" cx="76" cy="76" r="76"></circle>
                    <g id="电脑" transform="translate(45.000000, 52.000000)" fill="#000000" fill-rule="nonzero">
                        <path d="M55.7143048,0 L4.28569525,0 C1.91889443,0 0,1.89646418 0,4.24016349 L0,38.1595596 C0,40.5013471 1.91889443,42.399789 4.28569525,42.399789 L25.7143048,42.399789 L25.7143048,48.7601002 L14.9999334,48.7601002 C13.8176657,48.7601002 12.8570191,49.7104089 12.8570191,50.880182 L12.8570191,53 L47.1428476,53 L47.1428476,50.880182 C47.1428476,49.7104089 46.1823343,48.7601002 44.9999334,48.7601002 L34.2856286,48.7601002 L34.2856286,42.399789 L55.7142381,42.399789 C58.0810389,42.399789 60,40.5013471 60,38.1595596 L60,4.24016349 C60,1.89646418 58.0810389,0 55.7142381,0 L55.7143048,0 Z M27.8571524,38.1596255 C27.8571524,36.9898525 28.8175991,36.0396097 30,36.0396097 C31.1822677,36.0396097 32.142781,36.9898525 32.142781,38.1596255 C32.142781,39.3315741 31.1822677,40.2818828 30,40.2818828 C28.8177323,40.2818169 27.8571524,39.3315741 27.8571524,38.1596255 Z M4.28562861,33.9193961 L4.28562861,4.24016349 L55.7142381,4.24016349 L55.7142381,33.9193961 L4.28562861,33.9193961 Z" id="Shape"></path>
                    </g>
                </g>
            </g>
        </g>
    </g>
</svg>