<?xml version="1.0" encoding="UTF-8"?>
<svg width="152px" height="152px" viewBox="0 0 152 152" version="1.1" xmlns="http://www.w3.org/2000/svg" xmlns:xlink="http://www.w3.org/1999/xlink">
    <!-- Generator: Sketch 49.2 (51160) - http://www.bohemiancoding.com/sketch -->
    <title>49</title>
    <desc>Created with Sketch.</desc>
    <defs></defs>
    <g id="Page-1" stroke="none" stroke-width="1" fill="none" fill-rule="evenodd">
        <g id="招商加盟" transform="translate(-703.000000, -1616.000000)">
            <g id="Group-18" transform="translate(703.000000, 1616.000000)">
                <g id="Group-19">
                    <circle id="Oval-2-Copy-9" fill="#F1F1F1" cx="76" cy="76" r="76"></circle>
                    <g id="联系店员" transform="translate(41.000000, 39.000000)" fill="#000000" fill-rule="nonzero">
                        <path d="M42,14 C42,15.1045695 42.8954305,16 44,16 C45.1045695,16 46,15.1045695 46,14 C46,12.8954305 45.1045695,12 44,12 C42.8954305,12 42,12.8954305 42,14 Z" id="Shape"></path>
                        <path d="M32,14 C32,15.1045695 32.8954305,16 34,16 C35.1045695,16 36,15.1045695 36,14 C36,12.8954305 35.1045695,12 34,12 C32.8954305,12 32,12.8954305 32,14 Z" id="Shape"></path>
                        <path d="M52,14 C52,15.1045695 52.8954305,16 54,16 C55.1045695,16 56,15.1045695 56,14 C56,12.8954305 55.1045695,12 54,12 C52.8954305,12 52,12.8954305 52,14 Z" id="Shape"></path>
                        <path d="M38.5688875,28.0503973 L43.2957876,33.4594186 C43.5953364,33.8019261 44.0357496,34 44.5000772,34 C44.9644048,34 45.4048179,33.8019261 45.7042896,33.4594186 L50.4319612,28.0518893 C59.03803,26.2469177 65,20.6636211 65,14.3342088 C65,6.43064997 55.8040909,0 44.5,0 C33.1959091,0 24,6.43064997 24,14.3342088 C24.0000773,20.6636211 29.9620473,26.2468431 38.5688875,28.0503973 Z M44.5000773,3.05003965 C54.0648102,3.05003965 61.8462133,8.11207734 61.8462133,14.3342089 C61.8462133,19.3173154 56.6781286,23.7717027 49.2778151,25.1671725 C48.9259629,25.234167 48.6071282,25.4144105 48.3753887,25.6794789 L44.5000773,30.1130516 L40.6255373,25.6794789 C40.3937978,25.4144105 40.0757345,25.234167 39.7231108,25.1671725 C32.3227974,23.7717028 27.1539412,19.3173154 27.1539412,14.3342089 C27.1539412,8.11207734 34.9353443,3.05003965 44.5000773,3.05003965 Z" id="Shape"></path>
                        <path d="M65.9262177,62.0847502 C64.8974858,58.0825884 62.2893388,54.8207109 58.8721861,52.8960326 C61.1015865,50.9004308 62.5076214,48.0004768 62.5076214,44.7777138 C62.5076214,38.7742428 57.629958,33.888808 51.6352772,33.888808 C45.6405964,33.888808 40.7636928,38.7742428 40.7636928,44.7777138 C40.7636928,48.0004768 42.1695758,50.9005069 44.3988243,52.8961087 C43.0469611,53.6576244 41.8218279,54.6285626 40.7709866,55.7719396 C38.8851554,50.3529797 34.8418742,45.9386695 29.6761051,43.5662289 C33.5643167,40.8181671 36.1090227,36.2845347 36.1090227,31.1666196 C36.1090227,29.8784276 35.066311,28.8332935 33.7794083,28.8332935 C32.4925056,28.8332935 31.4497939,29.8784275 31.4497939,31.1666196 C31.4497939,36.9558739 26.7473341,41.666587 20.9665292,41.666587 C15.1857244,41.666587 10.4832647,36.9558739 10.4832647,31.1666196 C10.4832647,25.3773653 15.1857245,20.6666522 20.9665294,20.6666522 C22.253432,20.6666522 23.2961438,19.6215182 23.2961438,18.3333261 C23.2961438,17.0451341 22.253432,16 20.9665294,16 C12.6172376,16 5.82403596,22.8040252 5.82403596,31.1666195 C5.82403596,36.2845346 8.36874196,40.8181669 12.2569536,43.5662288 C5.0313653,46.8845714 0,54.1973897 0,62.6665979 C0,63.9547899 1.04271173,64.999924 2.3296144,64.999924 C3.61651707,64.999924 4.6592288,63.95479 4.6592288,62.6665979 C4.6592288,53.6599075 11.974926,46.3333153 20.9665295,46.3333153 C29.9522826,46.3333153 37.264105,53.6503951 37.2736781,62.6490192 C37.2731463,62.7328034 37.2770211,62.8160549 37.2853786,62.8983172 C37.4015478,64.0777648 38.3947224,64.9999239 39.6035204,64.9999239 C40.7058743,64.9999239 41.628466,64.2327769 41.8705295,63.2030909 C43.0319177,58.7633638 47.0410091,55.6666196 51.6353533,55.6666196 C56.2460327,55.6666196 60.2659888,58.7838343 61.4126375,63.2484454 C61.6841042,64.3011893 62.6305527,65 63.6679461,65 C63.8605484,65 64.0546703,64.9772466 64.2503117,64.9270979 C65.4955027,64.6048977 66.2462339,63.3334473 65.9262177,62.0847502 Z M51.6352773,50.9998913 C48.2098431,50.9998913 45.4229977,48.2092905 45.4229977,44.7777138 C45.4229977,41.3461371 48.2099191,38.5554602 51.6352773,38.5554602 C55.0614713,38.5554602 57.8483928,41.346061 57.8483928,44.7777138 C57.8483928,48.2093667 55.0614713,50.9998913 51.6352773,50.9998913 Z" id="Shape"></path>
                    </g>
                </g>
            </g>
        </g>
    </g>
</svg>