<?xml version="1.0" encoding="UTF-8"?>
<svg width="152px" height="152px" viewBox="0 0 152 152" version="1.1" xmlns="http://www.w3.org/2000/svg" xmlns:xlink="http://www.w3.org/1999/xlink">
    <!-- Generator: Sketch 49.2 (51160) - http://www.bohemiancoding.com/sketch -->
    <title>50</title>
    <desc>Created with Sketch.</desc>
    <defs></defs>
    <g id="Page-1" stroke="none" stroke-width="1" fill="none" fill-rule="evenodd">
        <g id="招商加盟" transform="translate(-1072.000000, -1616.000000)">
            <g id="Group-20" transform="translate(1072.000000, 1616.000000)">
                <g id="Group-21">
                    <circle id="Oval-2-Copy-10" fill="#F1F1F1" cx="76" cy="76" r="76"></circle>
                    <g id="员工渠道APP-签约" transform="translate(48.000000, 43.000000)" fill="#000000" fill-rule="nonzero">
                        <path d="M32.4749423,48.2109665 L27.6534959,48.2109665 L15.6464272,48.2109665 L10.8249808,48.2109665 C9.6299029,48.2109665 8.65998463,49.192717 8.65998463,50.402374 C8.65998463,51.612031 9.6299029,52.5937816 10.8249808,52.5937816 L16.9865598,52.5937816 L26.3133633,52.5937816 L32.4749423,52.5937816 C33.6700202,52.5937816 34.6399385,51.612031 34.6399385,50.402374 C34.6399385,49.192717 33.6700202,48.2109665 32.4749423,48.2109665 Z M32.4749423,39.4453362 L27.6534959,39.4453362 L15.6464272,39.4453362 L10.8249808,39.4453362 C9.6299029,39.4453362 8.65998463,40.4270868 8.65998463,41.6367438 C8.65998463,42.8464007 9.6299029,43.8281513 10.8249808,43.8281513 L16.9865598,43.8281513 L26.3133633,43.8281513 L32.4749423,43.8281513 C33.6700202,43.8281513 34.6399385,42.8464007 34.6399385,41.6367438 C34.6399385,40.4270868 33.6700202,39.4453362 32.4749423,39.4453362 Z M39.6908745,15.339853 L47.6299154,15.339853 L47.6299154,25.4531989 L49.2060326,22.6197089 C49.8555315,21.4560715 50.8427697,20.4984264 51.9599078,19.8716838 L51.9599078,13.1133829 L47.6299154,8.73056774 L47.6299154,8.76563026 L43.2999231,4.38281513 L43.3345631,4.38281513 L39.0045708,0 L4.32999231,0 C1.93767156,0 0,1.96350118 0,4.38281513 L0,59.1680043 C0,61.5873182 1.93767156,63.5508194 4.32999231,63.5508194 C4.32999231,63.5508194 23.2520587,63.596839 36.2030657,63.5924562 L36.8872045,59.1680043 L4.32999231,59.1680043 L4.32999231,4.38281513 L36.8049347,4.38281513 L36.8049347,12.4187067 C36.8049347,14.0315826 38.0974374,15.339853 39.6908745,15.339853 Z M32.4749423,30.6797059 L27.6534959,30.6797059 L15.6464272,30.6797059 L10.8249808,30.6797059 C9.6299029,30.6797059 8.65998463,31.6614565 8.65998463,32.8711135 C8.65998463,34.0807705 9.6299029,35.0625211 10.8249808,35.0625211 L16.9865598,35.0625211 L26.3133633,35.0625211 L32.4749423,35.0625211 C33.6700202,35.0625211 34.6399385,34.0807705 34.6399385,32.8711135 C34.6399385,31.6614565 33.6700202,30.6797059 32.4749423,30.6797059 Z M44.9907851,37.126827 C44.477681,38.0494096 44.7829455,39.2283868 45.6705939,39.7587075 C46.5604073,40.2912195 47.6970303,39.9756568 48.2101344,39.0530742 L55.0255423,26.8118716 C55.5386464,25.889289 55.2333819,24.7103117 54.3457335,24.1777997 C53.4559201,23.6452876 52.3192971,23.9608503 51.806193,24.8834329 L44.9907851,37.126827 Z M63.6898569,25.3260972 C61.7651754,24.1493114 59.1173851,24.668675 58.1020019,26.4283752 L51.286594,38.6695779 L58.7991306,43.1663462 L65.6145385,30.9251436 C66.5952818,29.1632519 65.6145385,26.5006917 63.6898569,25.3260972 Z M32.4749423,13.1484454 L27.6534959,13.1484454 L15.6464272,13.1484454 L10.8249808,13.1484454 C9.6299029,13.1484454 8.65998463,14.130196 8.65998463,15.339853 C8.65998463,16.5495099 9.6299029,17.5312605 10.8249808,17.5312605 L16.9865598,17.5312605 L26.3133633,17.5312605 L32.4749423,17.5312605 C33.6700202,17.5312605 34.6399385,16.5495099 34.6399385,15.339853 C34.6399385,14.130196 33.6700202,13.1484454 32.4749423,13.1484454 Z M32.4749423,21.9140757 L27.6534959,21.9140757 L15.6464272,21.9140757 L10.8249808,21.9140757 C9.6299029,21.9140757 8.65998463,22.8958262 8.65998463,24.1054832 C8.65998463,25.3151402 9.6299029,26.2968908 10.8249808,26.2968908 L16.9865598,26.2968908 L26.3133633,26.2968908 L32.4749423,26.2968908 C33.6700202,26.2968908 34.6399385,25.3151402 34.6399385,24.1054832 C34.6399385,22.8958262 33.6700202,21.9140757 32.4749423,21.9140757 Z M40.7538877,57.5879994 C40.0351089,58.8590158 38.4265168,64.7341795 39.2622053,67.2148529 L38.5196116,68.527506 C38.2641421,68.978936 38.4395068,69.5728074 38.9071459,69.8533076 C39.0110657,69.914667 39.1193156,69.9584951 39.2275654,69.9804092 C39.6172647,70.0592999 40.019954,69.8971357 40.2191336,69.5443191 L41.0050272,68.1549667 C43.4709578,67.5720523 47.4047558,63.607796 48.2642593,62.0847678 L57.5650828,45.3884335 L50.0460512,40.8938566 L40.7538877,57.5879994 Z" id="Shape"></path>
                    </g>
                </g>
            </g>
        </g>
    </g>
</svg>