<?xml version="1.0" encoding="UTF-8"?>
<svg width="152px" height="152px" viewBox="0 0 152 152" version="1.1" xmlns="http://www.w3.org/2000/svg" xmlns:xlink="http://www.w3.org/1999/xlink">
    <!-- Generator: Sketch 49.2 (51160) - http://www.bohemiancoding.com/sketch -->
    <title>51</title>
    <desc>Created with Sketch.</desc>
    <defs></defs>
    <g id="Page-1" stroke="none" stroke-width="1" fill="none" fill-rule="evenodd">
        <g id="招商加盟" transform="translate(-1444.000000, -1616.000000)">
            <g id="Group-22" transform="translate(1444.000000, 1616.000000)">
                <g id="Group-23">
                    <circle id="Oval-2-Copy-11" fill="#F1F1F1" cx="76" cy="76" r="76"></circle>
                    <g id="运营" transform="translate(46.000000, 46.000000)" fill="#000000" fill-rule="nonzero">
                        <path d="M18.3441659,7.90586631 C27.0244524,3.31016793 37.5957264,4.24753582 45.3317828,10.2988915 C44.2636843,13.7877349 45.8623464,17.538881 49.11884,19.1849499 C52.3753335,20.8310187 56.3440723,19.8940423 58.5203517,16.9653543 C60.6966312,14.0366662 60.4485262,9.96666812 57.932618,7.32397014 C55.4167099,4.68127217 51.3635412,4.23323302 48.3311012,6.26261399 C38.8810575,-1.0415281 25.9975983,-2.04287198 15.5323049,3.71338607 L15.6385307,3.80710768 C16.8067372,4.97764557 17.7269479,6.37166989 18.3441659,7.90586631 Z M5.00344759,30.0054231 C5.00386419,26.5630752 5.72100374,23.1585157 7.10921904,20.0084508 L7.58411112,20.0084508 C11.1899306,20.0137527 14.2889233,17.4519785 14.9617433,13.9097507 C15.6345633,10.3675228 13.6906618,6.84803294 10.3339846,5.53105989 C6.97730738,4.21408684 3.15849657,5.47260955 1.24271392,8.52716816 C-0.673068727,11.5817268 -0.143255827,15.567242 2.5040156,18.0153045 C-0.692861591,25.3396548 -0.834101579,33.636905 2.11163837,41.0658023 C5.05737832,48.4946995 10.8464523,54.4407902 18.1941999,57.5845703 C18.2232375,55.8583441 18.6082665,54.1566873 19.3251929,52.5860842 C10.5873634,48.4602766 5.01071186,39.6677395 5.00344759,30.0054231 Z M54.3047437,24.194683 C57.4246042,37.2532643 49.6688146,50.4434554 36.7399853,54.0668857 C35.068778,50.8250352 31.30701,49.2559583 27.8272744,50.3492909 C24.3475387,51.4426235 22.1594004,54.8811605 22.6429451,58.4961745 C23.1264897,62.1111885 26.141428,64.8538665 29.7862015,64.9943681 C33.430975,65.1348697 36.6481367,62.6324314 37.4085834,59.0653718 C45.1509583,57.0926219 51.7861664,52.1124991 55.8425821,45.2295471 C59.8989978,38.3465951 61.0413129,30.1297668 59.016173,22.4014761 C57.5848546,23.3150802 55.9813305,23.9253941 54.3047437,24.194683 Z" id="Shape"></path>
                    </g>
                </g>
            </g>
        </g>
    </g>
</svg>