<?xml version="1.0" encoding="UTF-8"?>
<svg width="60px" height="60px" viewBox="0 0 60 60" version="1.1" xmlns="http://www.w3.org/2000/svg" xmlns:xlink="http://www.w3.org/1999/xlink">
    <!-- Generator: Sketch 49.2 (51160) - http://www.bohemiancoding.com/sketch -->
    <title>55</title>
    <desc>Created with Sketch.</desc>
    <defs></defs>
    <g id="Page-1" stroke="none" stroke-width="1" fill="none" fill-rule="evenodd">
        <g id="招商加盟" transform="translate(-370.000000, -3602.000000)" fill="#000000" fill-rule="nonzero">
            <g id="培训" transform="translate(370.000000, 3602.000000)">
                <g id="Group-30" transform="translate(5.000000, 5.000000)">
                    <path d="M13.9461432,15.0836237 C15.2330264,18.9721254 18.8111896,18.9721254 20.0666855,15.0836237 C20.4747216,14.8641115 20.9141452,14.2055749 20.9769199,13.6724739 C21.0396947,13.1080139 21.0083073,12.3554007 20.4433342,12.3554007 C20.3177846,10.5365854 19.3133879,9 17.0534954,9 C14.8249903,9 13.695044,10.3484321 13.5694944,12.3554007 C13.0045213,12.3554007 12.9417465,13.1080139 13.0359087,13.6724739 C13.0986834,14.2055749 13.538107,14.8641115 13.9461432,15.0836237 Z" id="Shape"></path>
                    <path d="M22.3115533,34.68438 C23.8191268,34.68438 25.0700921,33.4911433 25.0700921,32.0531401 L25.0700921,31.9613527 L35.7834868,21.742351 C36.0721711,21.4669887 36.0721711,21.0080515 35.7834868,20.7326892 C35.4948025,20.4573269 35.013662,20.4573269 34.7249777,20.7326892 L25.038016,29.942029 L25.038016,21.252818 C25.038016,19.3558776 23.5945946,17.7342995 21.5738046,17.3059581 L20.0983071,17 C18.8152658,19.4170692 15.1906742,19.4170692 13.9397089,17 L12.4642115,17.3059581 C10.4434214,17.7037037 9,19.3558776 9,21.252818 L9,32.0531401 C9,33.4911433 10.2188892,34.68438 11.7585388,34.68438 C11.7585388,35.4186795 12.3679834,36 13.1378081,36 L20.9322839,36 C21.7021087,36 22.3115533,35.3880837 22.3115533,34.68438 Z" id="Shape"></path>
                    <path d="M4.49076355,34.6149601 C5.65270936,35.1152667 6.97167488,34.3022685 6.97167488,33.020233 C6.97167488,32.4573881 6.62623153,31.9883507 6.09236453,31.8007357 C4.42795567,31.2066217 3.20320197,29.6431637 3.20320197,27.7670141 L3.20320197,7.47332925 C3.20320197,5.09687308 5.11884236,3.18945432 7.50554187,3.18945432 L43.3060345,3.18945432 C45.692734,3.18945432 47.6083744,5.09687308 47.6083744,7.47332925 L47.6083744,27.7670141 C47.6083744,30.1434703 45.692734,32.050889 43.3060345,32.050889 L29.0486453,32.050889 C28.169335,32.050889 27.4470443,32.7700797 27.4470443,33.6456162 C27.4470443,34.5211527 28.169335,35.2403433 29.0486453,35.2403433 L43.3374384,35.2403433 C47.4827586,35.2403433 50.8429803,31.8945432 50.8429803,27.7670141 L50.8429803,7.47332925 C50.8429803,3.34580012 47.4827586,0 43.3374384,0 L7.53694581,0 C3.39162562,0 0.0314039409,3.34580012 0.0314039409,7.47332925 L0.0314039409,27.7670141 C-1.73472348e-16,30.8313918 1.85283251,33.4580012 4.49076355,34.6149601 Z M10.5203202,39.6805641 L4.89901478,39.6805641 C2.19827586,39.6805641 0,41.8694053 0,44.558553 L0,51 L15.419335,51 L15.419335,44.558553 C15.419335,41.8694053 13.2210591,39.6805641 10.5203202,39.6805641 Z M28.2949507,39.6805641 L22.7050493,39.6805641 C20.0043103,39.6805641 17.8060345,41.8694053 17.8060345,44.558553 L17.8060345,51 L33.2253695,51 L33.2253695,44.558553 C33.1939655,41.8694053 30.9956897,39.6805641 28.2949507,39.6805641 Z M46.0695813,39.6805641 L40.4796798,39.6805641 C37.7789409,39.6805641 35.580665,41.8694053 35.580665,44.558553 L35.580665,51 L51,51 L51,44.558553 C51,41.8694053 48.8017241,39.6805641 46.0695813,39.6805641 Z" id="Shape"></path>
                </g>
            </g>
        </g>
    </g>
</svg>