<?xml version="1.0" encoding="UTF-8"?>
<svg width="60px" height="60px" viewBox="0 0 60 60" version="1.1" xmlns="http://www.w3.org/2000/svg" xmlns:xlink="http://www.w3.org/1999/xlink">
    <!-- Generator: Sketch 49.2 (51160) - http://www.bohemiancoding.com/sketch -->
    <title>56</title>
    <desc>Created with Sketch.</desc>
    <defs></defs>
    <g id="Page-1" stroke="none" stroke-width="1" fill="none" fill-rule="evenodd">
        <g id="招商加盟" transform="translate(-746.000000, -3602.000000)" fill="#000000" fill-rule="nonzero">
            <g id="42类技术服务x16" transform="translate(746.000000, 3602.000000)">
                <g id="Group-31" transform="translate(5.000000, 5.000000)">
                    <path d="M47.4190283,0 L2.58097166,0 C1.15800868,0.0059875737 0.00594146791,1.16699482 0,2.601 L0,37.842 C0,39.27 1.16396761,40.443 2.58097166,40.443 L19.9139676,40.443 L19.9139676,48.093 L15.1315789,48.093 C14.3350144,48.093 13.6892713,48.7437541 13.6892713,49.5465 C13.6892713,50.3492459 14.3350144,51 15.1315789,51 L34.8937247,51 C35.6902892,51 36.3360324,50.3492459 36.3360324,49.5465 C36.3360324,48.7437541 35.6902892,48.093 34.8937247,48.093 L30.0860324,48.093 L30.0860324,40.443 L47.4190283,40.443 C48.8419913,40.4370124 49.9940585,39.2760052 50,37.842 L50,2.601 C49.9940585,1.16699482 48.8419913,0.0059875737 47.4190283,0 Z M27.1761134,48.0675 L22.8238866,48.0675 L22.8238866,40.4175 L27.1761134,40.4175 L27.1761134,48.0675 Z M46.063476,36.7090714 L3.936524,36.7090714 L3.936524,3.73392857 L46.063476,3.73392857 L46.063476,36.7090714 Z" id="Shape"></path>
                    <path d="M12.0535811,20.341741 L15.4811228,17.1065367 C15.7212122,16.8816808 15.856251,16.5756519 15.856251,16.2564101 C15.856251,15.9371682 15.7212122,15.6311394 15.4811228,15.4062834 C15.2428988,15.1796667 14.9186761,15.0522056 14.5804549,15.0522056 C14.2422337,15.0522056 13.918011,15.1796667 13.679787,15.4062834 L9.37659597,19.4679997 C8.87446801,19.9540854 8.87446801,20.7293965 9.37659597,21.2154823 L13.7048056,25.2771986 C14.2051766,25.7494911 15.0057703,25.7494911 15.5061413,25.2771986 C15.7462308,25.0523426 15.8812695,24.7463137 15.8812695,24.4270719 C15.8812695,24.10783 15.7462308,23.8018012 15.5061413,23.5769452 L12.0535811,20.341741 Z M21.4605569,25.8439497 L21.1353157,25.6786473 C20.5417126,25.3536366 20.330821,24.641221 20.6599632,24.0728524 L25.7637479,15.5952004 C26.1080809,15.0349075 26.8628506,14.8358503 27.4650095,15.1465225 L27.7902506,15.3118249 C28.3838537,15.6368355 28.5947453,16.3492511 28.2656031,16.9176197 L23.1618184,25.3952717 C23.0016761,25.6701016 22.7310887,25.8725328 22.4110446,25.9569388 C22.0910005,26.0413448 21.7484339,26.0006223 21.4605569,25.8439497 Z M39.624026,19.4679997 L35.2958164,15.3826688 C35.0575924,15.156052 34.7333697,15.028591 34.3951485,15.028591 C34.0569273,15.028591 33.7327046,15.156052 33.4944806,15.3826688 C33.2543912,15.6075247 33.1193524,15.9135536 33.1193524,16.2327954 C33.1193524,16.5520373 33.2543912,16.8580661 33.4944806,17.0829221 L36.9220223,20.3181263 L33.4944806,23.5533306 C33.2543912,23.7781866 33.1193524,24.0842154 33.1193524,24.4034573 C33.1193524,24.7226991 33.2543912,25.028728 33.4944806,25.2535839 C33.9948517,25.7258765 34.7954454,25.7258765 35.2958164,25.2535839 L39.624026,21.1918676 C39.8686728,20.9602057 40.003974,20.6451908 39.9993043,20.3181263 C40.0110305,19.996742 39.8740517,19.6864408 39.624026,19.4679997 Z" id="Shape"></path>
                </g>
            </g>
        </g>
    </g>
</svg>