<?xml version="1.0" encoding="UTF-8"?>
<svg width="60px" height="60px" viewBox="0 0 60 60" version="1.1" xmlns="http://www.w3.org/2000/svg" xmlns:xlink="http://www.w3.org/1999/xlink">
    <!-- Generator: Sketch 49.2 (51160) - http://www.bohemiancoding.com/sketch -->
    <title>57</title>
    <desc>Created with Sketch.</desc>
    <defs></defs>
    <g id="Page-1" stroke="none" stroke-width="1" fill="none" fill-rule="evenodd">
        <g id="招商加盟" transform="translate(-1121.000000, -3601.000000)" fill="#000000" fill-rule="nonzero">
            <g id="多人-用户" transform="translate(1121.000000, 3601.000000)">
                <g id="Group-32" transform="translate(1.000000, 7.000000)">
                    <path d="M30.16375,26.5526518 C34.183125,23.9515757 36.875,19.5080707 36.875,14.4504228 C36.875,6.46656418 30.274375,0 22.125,0 C13.975625,0 7.375,6.46656418 7.375,14.4504228 C7.375,19.5080707 10.066875,23.9515757 14.08625,26.5526518 C5.863125,29.189854 0,35.9815527 0,45.1575711 C0,46.1691007 0.81125,46.9638739 1.84375,46.9638739 C2.87625,46.9638739 3.6875,46.1691007 3.6875,45.1575711 C3.6875,35.1867794 11.9475,28.9008455 22.125,28.9008455 C32.3025,28.9008455 40.5625,35.1867794 40.5625,45.1575711 C40.5625,46.1691007 41.37375,46.9638739 42.40625,46.9638739 C43.43875,46.9638739 44.25,46.1691007 44.25,45.1575711 C44.25,35.9815527 38.386875,29.189854 30.16375,26.5526518 Z M22.125,25.2882398 C16.040625,25.2882398 11.0625,20.4112221 11.0625,14.4504228 C11.0625,8.48962337 16.040625,3.61260569 22.125,3.61260569 C28.209375,3.61260569 33.1875,8.48962337 33.1875,14.4504228 C33.1875,20.4112221 28.209375,25.2882398 22.125,25.2882398 Z M46.351875,26.7694081 C50.5925,24.2044581 53.46875,19.688701 53.46875,14.4504228 C53.46875,6.46656418 46.868125,0 38.71875,0 C37.68625,0 36.875,0.794773251 36.875,1.80630284 C36.875,2.81783244 37.68625,3.61260569 38.71875,3.61260569 C44.803125,3.61260569 49.78125,8.48962337 49.78125,14.4504228 C49.78125,18.4604151 47.56875,21.9285165 44.25,23.8070715 C41.005,25.7578786 40.12,28.5034589 44.25,29.9846272 C50.66625,32.2244427 55.3125,38.11299 55.3125,45.1936972 C55.3125,46.2052267 56.12375,47 57.15625,47 C58.18875,47 59,46.2052267 59,45.1936972 C59,36.848578 53.76375,29.7317448 46.351875,26.7694081 Z" id="Shape"></path>
                </g>
            </g>
        </g>
    </g>
</svg>