<?xml version="1.0" encoding="UTF-8"?>
<svg width="60px" height="60px" viewBox="0 0 60 60" version="1.1" xmlns="http://www.w3.org/2000/svg" xmlns:xlink="http://www.w3.org/1999/xlink">
    <!-- Generator: Sketch 49.2 (51160) - http://www.bohemiancoding.com/sketch -->
    <title>58</title>
    <desc>Created with Sketch.</desc>
    <defs></defs>
    <g id="Page-1" stroke="none" stroke-width="1" fill="none" fill-rule="evenodd">
        <g id="招商加盟" transform="translate(-1491.000000, -3601.000000)" fill="#000000" fill-rule="nonzero">
            <g id="Group-2" transform="translate(1491.000000, 3601.000000)">
                <g id="Group-33" transform="translate(8.000000, 3.000000)">
                    <path d="M18.3216786,20.7225655 C17.4498884,20.0437237 16.4142278,19.8746949 15.2999095,20.0846178 C13.7333091,20.3790552 12.7631967,21.4641114 12.7599193,22.843605 C12.7533645,26.3577696 12.7599193,29.8719341 12.7566419,33.3860987 C12.7566419,34.3103049 13.1695951,35.0654822 14.0348305,35.6489044 C14.0971012,35.695251 14.1495398,35.7961231 14.1364301,35.8615536 C13.9135665,37.1837955 13.684148,38.5087637 13.4547295,39.8282793 C12.9762281,42.611803 12.4977267,45.3953267 12.0192253,48.1788503 C11.8946839,48.9013124 12.3862949,49.5747016 13.1728725,49.7519093 C14.0249983,49.9454746 14.860737,49.6237745 15.1688133,48.9449328 C15.2933547,48.6750318 15.3261288,48.3778682 15.3752899,48.0888834 C15.6473147,46.5458134 15.9095072,44.997291 16.1749771,43.4514948 C16.2732994,42.8844302 16.374899,42.3173656 16.4732212,41.7503011 C16.5256597,41.7911951 16.5453241,41.8320892 16.5584337,41.8784358 C16.8337359,42.8217259 17.1090381,43.7622898 17.3843403,44.7055799 C17.7874613,46.0877997 18.1905823,47.4672934 18.5937034,48.8522395 C18.7247996,49.3102532 19.0164888,49.6673948 19.5441513,49.8664127 C19.694912,49.9236644 19.8620598,49.9563796 20.0193753,50 C20.1635812,50 20.3077871,50 20.451993,50 C20.5044315,49.9863686 20.5535926,49.970011 20.6093085,49.9563796 C21.4778213,49.7709932 22.0120386,49.1166879 21.8448909,48.3887733 C21.7072398,47.7808146 21.5138728,47.1837611 21.3401703,46.5839812 C20.2881227,42.982576 19.2327977,39.3811707 18.1873049,35.7770392 C18.1676405,35.7061561 18.1938597,35.5862002 18.2561305,35.5398535 C19.0361533,34.9455263 19.3933906,34.2094328 19.3901132,33.3342995 C19.3868358,30.7606988 19.3901132,28.1816455 19.3901132,25.6080448 C19.3901132,25.5317092 19.3901132,25.4553736 19.3901132,25.3354176 C19.4917128,25.4090269 19.5605384,25.4553736 19.6195317,25.5017202 C21.7629557,27.1701986 23.9063798,28.8414033 26.0498038,30.5071555 C26.1677905,30.5971225 26.2857771,30.6870895 26.4168734,30.7634251 C26.9347037,31.0496836 27.4918628,31.0987565 28.0555768,30.8752022 C28.6356778,30.6461954 28.9535862,30.2508859 28.9961925,29.7110841 C29.0355214,29.2203551 28.766774,28.8495822 28.347266,28.5224295 C25.004311,25.9242923 21.6580787,23.3261552 18.3216786,20.7225655 Z" id="Shape"></path>
                    <path d="M16.4363133,16.897891 C18.6342756,16.4082317 20.1228427,14.4293129 19.9920116,12.2359872 C19.8873467,10.483065 18.7418478,8.89529414 17.084654,8.30712356 C16.677624,8.16225395 16.2357056,8.10140872 15.8112314,8 C15.5989943,8 15.3867572,8 15.1716128,8 C14.9710051,8.0347687 14.7645827,8.06084523 14.5668824,8.10430611 C12.2206449,8.62293929 10.7320778,10.7525224 11.0402577,13.1370761 C11.3687891,15.6722941 13.9359858,17.4541902 16.4363133,16.897891 Z" id="Shape"></path>
                    <path d="M34.7374769,17.0048612 C33.6558828,16.9939235 32.5742887,17.0048612 31.4926947,17.0048612 C31.4417609,17.0048612 31.3938232,17.0157989 31.3099322,17.0240022 C31.3099322,17.532606 31.3099322,18.0330065 31.3099322,18.5388758 C30.7586488,18.5388758 30.2463148,18.5388758 29.7070158,18.5388758 C29.7070158,18.0302721 29.7070158,17.532606 29.7070158,17.0157989 C29.6231249,17.0103301 29.5751872,17.0048612 29.5212573,17.0048612 C28.4426593,17.0048612 27.3580691,17.0021268 26.2764751,17.0048612 C26.1386542,17.0048612 25.9978372,17.0103301 25.8600164,17.0349399 C24.7634418,17.2236155 24.0114193,18.0494131 24.0054271,19.0912305 C23.9964388,20.6389173 23.9994349,22.1866041 24.0084232,23.7342908 C24.0084232,23.8299959 24.0713414,23.9530452 24.1492402,24.0186715 C25.365659,25.0686922 26.5940622,26.1077752 27.8134772,27.1550615 C28.0381851,27.3546748 28.2299358,27.5898357 28.406706,27.8195277 C28.4995853,27.9453114 28.5894685,28 28.7542543,28 C30.7167033,27.9917967 32.6761563,27.9945311 34.6356093,27.9945311 C34.8093834,27.9917967 34.9861536,27.9890623 35.1599277,27.9589836 C36.2355296,27.770308 36.9935443,26.9390416 36.9965404,25.9300373 C37.0025326,23.6413203 36.9995365,21.3526032 36.9965404,19.0638862 C36.9965404,18.9627123 36.9935443,18.8615385 36.9755677,18.763099 C36.7838169,17.7267504 35.8909775,17.0185334 34.7374769,17.0048612 Z M31.8208749,25.8097224 C31.8247746,25.9765226 31.7545807,26.0284767 31.5206013,26.0230079 C30.8342617,26.0120702 30.1518217,26.0202734 29.4654821,26.0202734 C29.3796897,26.0202734 29.2977969,26.0120702 29.1847068,26.0066013 C29.1847068,24.997597 29.1847068,24.0022649 29.1847068,22.9850573 C28.5724607,22.9850573 27.9875121,22.9850573 27.3245704,22.9850573 C28.4047754,22.0854302 29.4459838,21.2240851 30.5027909,20.343599 C31.5556982,21.2240851 32.581308,22.0854302 33.6654126,22.9877917 C33.0102703,22.9877917 32.433121,22.9877917 31.8130756,22.9877917 C31.8130756,23.0670902 31.8130756,23.1409198 31.8130756,23.2092805 C31.8169752,24.0760945 31.8091759,24.9429084 31.8208749,25.8097224 Z" id="Shape"></path>
                    <g id="安全">
                        <path d="M22.1517871,55 C21.8331403,55 21.5142813,54.931706 21.2187034,54.7947012 C21.0071214,54.6966719 15.977626,52.351263 10.8746076,48.6704739 C3.65874119,43.4655407 0,38.2945809 0,33.3011298 L0,4.74687668 C0,3.67049945 0.812007874,2.760515 1.89878931,2.61899429 L21.8642762,0.018611955 C22.0565859,-0.00638870002 22.2514258,-0.00620179905 22.4436853,0.0191677555 L42.105598,2.61955009 C43.1904688,2.76301611 44,3.67209738 44,4.74687668 L44,33.3011298 C44,38.1194342 40.4004876,43.234814 33.3014513,48.5054706 C28.2825704,52.2316269 23.3369294,54.6717303 23.128744,54.7737892 C22.8253712,54.92257 22.4909025,55.000015 22.1517871,55 Z M3.86706026,6.03234718 L3.86706026,33.4710319 C3.86706026,35.3776435 4.78286462,37.4773606 6.58885031,39.7120083 C8.16808689,41.6659315 10.3986721,43.6881062 13.2186595,45.7221446 C16.8159995,48.3170603 20.4361237,50.2492574 22.1284073,51.1032233 C23.8101359,50.2096644 27.4116979,48.1941361 30.9625235,45.5516944 C33.7320655,43.4906414 35.9223236,41.4632495 37.4725159,39.5257639 C39.2378105,37.3193458 40.132869,35.2822343 40.132869,33.4710319 L40.132869,6.02841646 L22.1538119,3.65061915 L3.86706026,6.03234718 Z" id="Shape"></path>
                    </g>
                </g>
            </g>
        </g>
    </g>
</svg>