<?xml version="1.0" encoding="UTF-8"?>
<svg width="78px" height="78px" viewBox="0 0 78 78" version="1.1" xmlns="http://www.w3.org/2000/svg" xmlns:xlink="http://www.w3.org/1999/xlink">
    <!-- Generator: Sketch 49.2 (51160) - http://www.bohemiancoding.com/sketch -->
    <title>71</title>
    <desc>Created with Sketch.</desc>
    <defs></defs>
    <g id="Page-1" stroke="none" stroke-width="1" fill="none" fill-rule="evenodd">
        <g id="首页" transform="translate(-430.000000, -9165.000000)" fill="#FBBB02" fill-rule="nonzero">
            <g id="首页-管理" transform="translate(430.000000, 9165.000000)">
                <g id="Group-79">
                    <path d="M27.2530121,18.3253012 C27.2530121,10.8072289 21.1445783,4.69879516 13.6265061,4.69879516 C6.10843374,4.69879516 0,10.8072289 0,18.3253012 C0,22.0843374 1.40963859,25.373494 3.75903613,27.7228916 C3.28915657,30.5421687 2.81927709,33.3614458 2.81927709,36.1807229 C2.81927709,49.3373495 9.86746987,60.6144579 19.7349397,66.7228916 L22.5542169,55.4457831 C16.9156627,50.746988 13.6265061,43.6987952 13.6265061,36.1807229 C13.6265061,34.7710844 13.6265061,33.3614458 14.0963855,31.9518073 C21.1445783,31.9518073 27.2530121,25.8433735 27.2530121,18.3253012 Z M39,10.8072289 C43.6987952,10.8072289 47.9277108,12.2168675 51.686747,14.0963856 C51.2168674,15.5060242 50.7469879,17.3855422 50.7469879,18.7951807 C50.7469879,26.313253 56.8554217,32.4216867 64.3734939,32.4216867 C71.8915662,32.4216867 77.9999999,26.313253 78,18.7951807 C78,11.2771085 71.8915663,5.16867472 64.3734939,5.16867472 C62.4939759,5.16867472 61.0843373,5.63855427 59.2048193,6.10843375 C53.566265,2.34939762 46.5180723,0 39,0 C33.8313253,0 28.6626506,0.939759032 24.433735,3.28915665 L30.5421687,12.2168675 C33.3614458,11.2771085 36.1807229,10.8072289 39,10.8072289 Z M64.3734939,37.120482 C63.9036144,46.5180724 58.7349397,54.5060241 50.7469879,58.2650602 C48.3975903,54.0361446 43.6987952,50.746988 38.5301204,50.746988 C31.0120482,50.746988 24.9036145,56.8554217 24.9036145,64.373494 C24.9036145,71.8915663 31.0120482,78 38.5301204,78 C44.1686746,78 48.8674699,74.7108433 51.2168675,69.5421687 C65.313253,64.373494 75.1807229,51.2168675 75.1807229,35.7108434 L75.1807229,33.3614458 C74.7108434,33.8313253 64.373494,37.1204819 64.3734939,37.120482 Z" id="Shape"></path>
                </g>
            </g>
        </g>
    </g>
</svg>