<?xml version="1.0" encoding="UTF-8"?>
<svg width="78px" height="78px" viewBox="0 0 78 78" version="1.1" xmlns="http://www.w3.org/2000/svg" xmlns:xlink="http://www.w3.org/1999/xlink">
    <!-- Generator: Sketch 49.2 (51160) - http://www.bohemiancoding.com/sketch -->
    <title>72</title>
    <desc>Created with Sketch.</desc>
    <defs></defs>
    <g id="Page-1" stroke="none" stroke-width="1" fill="none" fill-rule="evenodd">
        <g id="首页" transform="translate(-1396.000000, -9156.000000)" fill="#FBBB02" fill-rule="nonzero">
            <g id="选择律师" transform="translate(1396.000000, 9156.000000)">
                <path d="M35.3705987,4.00012773 C35.2718097,4.12623635 35.1876419,4.26869942 35.0711802,4.37551484 C34.7406119,4.67832875 34.4478047,5.07288131 34.2904033,5.48519376 C34.5926191,5.41517602 34.7515461,5.16794183 34.9790025,5.03263383 C35.2068403,4.8970703 35.435441,4.76278445 35.6927756,4.61086639 C35.816103,6.04955208 36.6295552,7.02162323 37.6103258,7.89237299 C37.6979264,7.9701847 37.8000211,8.03317503 37.8815189,8.11648085 C38.1684777,8.41035091 38.5291784,8.55728594 38.9092049,8.6856944 C40.0196599,9.06082597 41.1434649,9.40529278 42.2283645,9.84597014 C43.8054294,10.4866069 45.2817981,11.3222201 46.5417719,12.4914397 C46.935911,12.8571163 47.2892376,13.2705787 47.63519,13.6842967 C48.1246853,14.2698648 48.5504826,14.9024521 48.8612168,15.6042905 C49.0409952,16.0097034 49.2324705,16.4142219 49.3603749,16.8370115 C49.5388818,17.4274348 49.6759405,18.0316573 49.8048621,18.6356241 C49.8704672,18.9427823 49.8853427,19.2615674 49.9108982,19.5761362 C49.9484049,20.0325292 50.0117214,20.4910943 49.9981173,20.9465929 C49.9749775,21.7197268 49.9213238,22.4934994 49.8418602,23.2630558 C49.772568,23.9367849 49.6849674,24.6126861 49.5425688,25.2738937 C49.3807175,26.0254346 49.1494468,26.7618985 48.9490716,27.5050065 C48.9279661,27.5825627 48.9091492,27.6606299 48.8889336,27.7402303 C49.4777266,27.8039873 49.5629115,27.9114416 49.7466311,28.4908767 C49.9070839,28.996461 49.8355031,29.4925904 49.7796879,29.9908918 C49.7302298,30.4309303 49.6413578,30.8667524 49.5608771,31.3028301 C49.5062061,31.5992555 49.4433982,31.8946589 49.3704189,32.1869957 C49.2521772,32.6606376 49.1891149,33.1479509 48.9765342,33.5979554 C48.778829,34.0165285 48.5434897,34.3984319 48.1980459,34.7127451 C48.1104453,34.7923456 48.038356,34.926887 48.0244976,35.0440517 C47.8706563,36.3295416 47.4667272,37.5480803 47.0128316,38.7465592 C46.7356628,39.4776568 46.3677149,40.1750233 46.0223982,40.8785226 C45.5139588,41.9140952 44.8727835,42.8704507 44.1878715,43.7925639 C43.5086809,44.7072665 42.7560023,45.5625561 41.9180117,46.3396509 C40.9859363,47.2035012 39.9844417,47.9703743 38.8786908,48.5961898 C38.1346579,49.0174462 37.3487954,49.344153 36.5371232,49.6062085 C36.2736858,49.6913031 35.9957541,49.7300173 35.726341,49.7973519 C35.2170116,49.9246104 34.6962395,50.0036998 34.1762301,49.9998667 C33.5739602,49.9955225 32.974106,49.9313822 32.3789559,49.795052 C30.7744284,49.4272033 29.3780318,48.647681 28.0930112,47.6504393 C26.5898156,46.4841584 25.3346733,45.0831648 24.2423995,43.5218202 C23.5672774,42.5566487 22.9746703,41.544969 22.4710622,40.4878034 C21.9149447,39.320117 21.4471906,38.1115444 21.1662075,36.8372981 C21.0332174,36.2337145 20.8679333,35.6390748 20.8197466,35.0186256 C20.8117366,34.9157711 20.7381217,34.7972009 20.6596753,34.7239889 C20.0338841,34.140593 19.7342112,33.3937796 19.5633329,32.5773319 C19.4918793,32.2360593 19.3986845,31.8990031 19.3338423,31.5565806 C19.2515816,31.1216529 19.1817809,30.6839142 19.1185915,30.2456645 C19.076889,29.9563941 19.0726934,29.6609908 19.0223453,29.3735091 C18.9436446,28.9229935 19.0861704,28.5155363 19.2420461,28.1134453 C19.3295195,27.887932 19.5254447,27.7779223 19.7746424,27.7826498 C19.900894,27.7850775 20.0271457,27.7830332 20.1851828,27.7830332 C20.1851828,27.6501528 20.1996769,27.5455094 20.1828942,27.4462325 C20.046217,26.6410285 19.8917399,25.8385077 19.7673954,25.0313871 C19.6981031,24.5812548 19.6739462,24.1239673 19.6328796,23.6696186 C19.6023655,23.3314125 19.5985514,22.9893733 19.5454061,22.655128 C19.4430571,22.0107859 19.4729354,21.3638884 19.4686126,20.7172465 C19.4658154,20.2812966 19.4471257,19.844069 19.4730625,19.4097802 C19.5108236,18.7796204 19.5354891,18.1425613 19.6542394,17.5255619 C19.7568427,16.9927627 19.9714578,16.4798955 20.1567031,15.9656229 C20.4755743,15.0800518 20.9433284,14.2670538 21.4813919,13.5046526 C22.3179839,12.3195896 23.3091801,11.2699623 24.4435378,10.3643315 C25.5173761,9.50699751 26.6658466,8.76363398 27.8815749,8.12440261 C28.4198927,7.84126523 28.9718146,7.59109232 29.554759,7.41847557 C29.9580523,7.29888322 30.3702455,7.21429971 30.7952799,7.25429166 C31.1249582,7.28533968 31.4289539,7.39343273 31.6799315,7.59019797 C31.8772554,7.25250296 32.0539821,6.91710772 32.2617316,6.60241117 C32.5767886,6.12480847 33.0201315,5.77446413 33.4707215,5.43383039 C33.6754195,5.27922921 33.8747776,5.11670626 34.0701943,4.95035024 C34.3642729,4.70004959 34.6545373,4.44514925 34.9421317,4.18769352 C35.0004897,4.13569127 35.0404122,4.06311821 35.0888532,4 C35.1830648,4.00012773 35.2767682,4.00012773 35.3705987,4.00012773 Z M0.000128393449,73.5013226 C19.7978249,73.5013226 39.5955214,73.5010652 59.3932178,73.5031242 C59.5566187,73.5031242 59.7222018,73.5232 59.8835489,73.5509973 C60.6040276,73.674798 61.3236078,73.8042611 62.0428028,73.934625 C62.083621,73.9422177 62.120075,73.977479 62.1583259,74 C63.1054864,74 64.0526469,74 65.0000643,74 C65.2377851,73.9532852 65.4753774,73.9068277 65.7130982,73.860113 C66.1760888,73.7686136 66.638181,73.6713233 67.1027119,73.5876743 C67.3336296,73.5462358 67.5687832,73.5085293 67.8026531,73.504926 C68.5001556,73.4941159 69.1975297,73.5010653 69.9323846,73.5010653 C69.9323846,73.1748337 69.9323846,72.8718952 69.9323846,72.5707584 C70.2503297,72.3961248 70.5423462,72.2429825 70.8274313,72.0776146 C71.7622694,71.5351823 72.6244564,70.8955883 73.4174578,70.1580603 C75.3988063,68.3148198 76.7595393,66.0909115 77.5041495,63.4891665 C77.722488,62.7261578 77.9089935,61.9543981 77.9355638,61.1540691 C77.9378742,61.0907532 77.9776655,61.0288528 78,60.9663091 C78,59.9930194 78,59.019601 78,58.0463113 C77.9676536,57.8060453 77.9408265,57.5650071 77.9021905,57.3258993 C77.6785892,55.9383535 77.2937692,54.598552 76.6898404,53.3277288 C75.8770716,51.6184556 74.7878177,50.1131576 73.3925561,48.829594 C72.0252768,47.57164 70.4803487,46.608903 68.7493002,45.9418977 C66.566685,45.1006449 64.3103916,44.8485394 61.9923577,45.0837864 C60.0732633,45.2783672 58.2726442,45.8567043 56.5865212,46.7897138 C54.7592035,47.8007099 53.2183829,49.1447582 51.9688087,50.8223734 C51.9011636,50.9133579 51.8241481,50.9976505 51.7570164,51.0787257 C49.9852781,50.3581851 48.2668088,49.6138366 46.5141959,48.9562258 C43.9788503,54.2618965 41.4612182,59.5303754 38.9172725,64.8538053 C38.7978987,64.5740312 38.7148505,64.3658092 38.6211485,64.1624775 C38.1326144,63.1034796 37.6443371,62.0447391 37.1487432,60.989216 C37.0559397,60.791418 37.0522173,60.6251492 37.1556745,60.422461 C37.7201972,59.314818 38.271242,58.2002256 38.8229287,57.086148 C38.9657921,56.7976229 38.9595026,56.7938909 38.7401371,56.5740867 C37.5680917,55.3991383 36.3961747,54.2243185 35.2236158,53.0497563 C35.1587946,52.9848961 35.0893524,52.9244113 35.0431431,52.8812998 C33.716682,54.2114495 32.4070358,55.5243546 31.0781357,56.8568207 C31.1045777,56.9151177 31.1448824,57.0126654 31.1917334,57.1069959 C31.7507365,58.2300818 32.3052471,59.3554842 32.8763159,60.4722643 C32.9636,60.6430372 32.9612896,60.773015 32.8861996,60.9358091 C32.2979306,62.2088199 31.7153094,63.4845334 31.1281956,64.7581878 C31.1063746,64.805546 31.0563146,64.8399065 30.9949591,64.9073406 C28.4474194,59.5769614 25.9132291,54.2746367 23.3758296,48.9657488 C23.2709604,48.9931599 23.2016466,49.0034552 23.138494,49.028936 C22.702202,49.2053713 22.2666802,49.3838657 21.8316718,49.5637756 C20.6369068,50.0578202 19.4406016,50.5481327 18.2485322,51.0488692 C16.9035873,51.6139512 15.5536365,52.1683518 14.2226827,52.7647056 C12.7921224,53.4059726 11.3697771,54.0678302 9.96553041,54.7643057 C8.93121414,55.2771391 7.93258168,55.8622969 6.91636399,56.411936 C6.054177,56.878312 5.38555534,57.5580576 4.81769547,58.3416568 C4.30438809,59.0502292 3.8752842,59.8134953 3.51177171,60.6071324 C2.91374775,61.9136031 2.41391805,63.2602252 2.00676352,64.6394061 C1.81756244,65.2800297 1.65031071,65.9273452 1.47702617,66.5727303 C1.32196854,67.1501667 1.15869603,67.7260587 1.02404745,68.3083852 C0.883751162,68.9151631 0.782219227,69.5308206 0.647699107,70.1391427 C0.472745867,70.9303347 0.297407586,71.7210119 0.206914557,72.5280329 C0.193821914,72.6446269 0.198057851,72.8058766 0,72.7890181 C0.000128393449,73.0265816 0.000128393449,73.2640164 0.000128393449,73.5013226 Z M77.9996325,60.1089333 C77.9441538,67.9283581 71.5451929,74.0772509 63.8449131,73.9992664 C56.328582,73.9233273 49.8988138,67.8031993 50.0012064,59.7990405 C50.100531,52.0500574 56.4284179,45.9694331 64.0309071,46.0001156 C71.6198462,45.9942347 78.056006,52.1518209 77.9996325,60.1089333 Z M60.0316603,64.2311999 C58.6202574,62.7949611 57.2416779,61.3920835 55.909878,60.0367522 C55.5706606,60.3528955 55.2581929,60.6440836 55,60.8848358 C56.6984131,62.6106866 58.3873927,64.3273432 60.033211,66 C63.3316965,62.6477254 66.6641683,59.2606448 70,55.8700179 C69.7317275,55.6064119 69.4333454,55.3137791 69.114158,55 C66.1004859,58.0630567 63.0722113,61.1406925 60.0316603,64.2311999 Z" id="Shape"></path>
            </g>
        </g>
    </g>
</svg>